<?xml version="1.0" encoding="utf-8" standalone="no"?>
<!DOCTYPE svg PUBLIC "-//W3C//DTD SVG 1.1//EN"
  "http://www.w3.org/Graphics/SVG/1.1/DTD/svg11.dtd">
<svg xmlns:xlink="http://www.w3.org/1999/xlink" width="800.398506pt" height="303.59952pt" viewBox="0 0 800.398506 303.59952" xmlns="http://www.w3.org/2000/svg" version="1.1">
 <metadata>
  <rdf:RDF xmlns:dc="http://purl.org/dc/elements/1.1/" xmlns:cc="http://creativecommons.org/ns#" xmlns:rdf="http://www.w3.org/1999/02/22-rdf-syntax-ns#">
   <cc:Work>
    <dc:type rdf:resource="http://purl.org/dc/dcmitype/StillImage"/>
    <dc:date>2026-10-01T22:05:49.300575</dc:date>
    <dc:format>image/svg+xml</dc:format>
    <dc:creator>
     <cc:Agent>
      <dc:title>Matplotlib v3.11.2, https://matplotlib.org/</dc:title>
     </cc:Agent>
    </dc:creator>
   </cc:Work>
  </rdf:RDF>
 </metadata>
 <defs>
  <style type="text/css">*{stroke-linejoin: round; stroke-linecap: butt}</style>
 </defs>
 <g id="figure_1">
  <g id="patch_1">
   <path d="M 0 303.59952 
L 800.398506 303.59952 
L 800.398506 0 
L 0 0 
z
" style="fill: #ffffff"/>
  </g>
  <g id="axes_1">
   <g id="patch_2">
    <path d="M 59.260391 254.833145 
L 506.344017 254.833145 
L 506.344017 21.938203 
L 59.260391 21.938203 
z
" style="fill: #ffffff"/>
   </g>
   <g id="matplotlib.axis_1">
    <g id="xtick_1">
     <g id="line2d_1">
      <path d="M 98.615047 254.833145 
L 98.615047 21.938203 
" clip-path="url(#p36cd9a4240)" style="fill: none; stroke: #ecf1f0; stroke-width: 0.8; stroke-linecap: square"/>
     </g>
     <g id="line2d_2">
      <defs>
       <path id="m51148817fa" d="M 0 0 
L 0 3.5 
" style="stroke: #5b6470; stroke-width: 0.8"/>
      </defs>
      <g>
       <use xlink:href="#m51148817fa" x="98.615047" y="254.833145" style="fill: #5b6470; stroke: #5b6470; stroke-width: 0.8"/>
      </g>
     </g>
     <g id="text_1">
      <!-- refinement -->
      <g style="fill: #5b6470" transform="translate(72.222547 270.088582) scale(0.096 -0.096)">
       <defs>
        <path id="DejaVuSans-55" d="M 2631 2963 
Q 2534 3019 2420 3045 
Q 2306 3072 2169 3072 
Q 1681 3072 1420 2755 
Q 1159 2438 1159 1844 
L 1159 0 
L 581 0 
L 581 3500 
L 1159 3500 
L 1159 2956 
Q 1341 3275 1631 3429 
Q 1922 3584 2338 3584 
Q 2397 3584 2469 3576 
Q 2541 3569 2628 3553 
L 2631 2963 
z
" transform="scale(0.015625)"/>
        <path id="DejaVuSans-48" d="M 3597 1894 
L 3597 1613 
L 953 1613 
Q 991 1019 1311 708 
Q 1631 397 2203 397 
Q 2534 397 2845 478 
Q 3156 559 3463 722 
L 3463 178 
Q 3153 47 2828 -22 
Q 2503 -91 2169 -91 
Q 1331 -91 842 396 
Q 353 884 353 1716 
Q 353 2575 817 3079 
Q 1281 3584 2069 3584 
Q 2775 3584 3186 3129 
Q 3597 2675 3597 1894 
z
M 3022 2063 
Q 3016 2534 2758 2815 
Q 2500 3097 2075 3097 
Q 1594 3097 1305 2825 
Q 1016 2553 972 2059 
L 3022 2063 
z
" transform="scale(0.015625)"/>
        <path id="DejaVuSans-13af" d="M 3431 3500 
L 3431 0 
L 2853 0 
L 2853 3053 
L 1275 3053 
L 1275 0 
L 697 0 
L 697 3053 
L 147 3053 
L 147 3500 
L 697 3500 
L 697 3744 
Q 697 4316 967 4589 
Q 1238 4863 1797 4863 
L 2375 4863 
L 2375 4384 
L 1825 4384 
Q 1516 4384 1395 4259 
Q 1275 4134 1275 3809 
L 1275 3500 
L 3431 3500 
z
M 2853 4856 
L 3431 4856 
L 3431 4128 
L 2853 4128 
L 2853 4856 
z
" transform="scale(0.015625)"/>
        <path id="DejaVuSans-51" d="M 3513 2113 
L 3513 0 
L 2938 0 
L 2938 2094 
Q 2938 2591 2744 2837 
Q 2550 3084 2163 3084 
Q 1697 3084 1428 2787 
Q 1159 2491 1159 1978 
L 1159 0 
L 581 0 
L 581 3500 
L 1159 3500 
L 1159 2956 
Q 1366 3272 1645 3428 
Q 1925 3584 2291 3584 
Q 2894 3584 3203 3211 
Q 3513 2838 3513 2113 
z
" transform="scale(0.015625)"/>
        <path id="DejaVuSans-50" d="M 3328 2828 
Q 3544 3216 3844 3400 
Q 4144 3584 4550 3584 
Q 5097 3584 5394 3201 
Q 5691 2819 5691 2113 
L 5691 0 
L 5113 0 
L 5113 2094 
Q 5113 2597 4934 2840 
Q 4756 3084 4391 3084 
Q 3944 3084 3684 2787 
Q 3425 2491 3425 1978 
L 3425 0 
L 2847 0 
L 2847 2094 
Q 2847 2600 2669 2842 
Q 2491 3084 2119 3084 
Q 1678 3084 1418 2786 
Q 1159 2488 1159 1978 
L 1159 0 
L 581 0 
L 581 3500 
L 1159 3500 
L 1159 2956 
Q 1356 3278 1631 3431 
Q 1906 3584 2284 3584 
Q 2666 3584 2933 3390 
Q 3200 3197 3328 2828 
z
" transform="scale(0.015625)"/>
        <path id="DejaVuSans-57" d="M 1172 4494 
L 1172 3500 
L 2356 3500 
L 2356 3053 
L 1172 3053 
L 1172 1153 
Q 1172 725 1289 603 
Q 1406 481 1766 481 
L 2356 481 
L 2356 0 
L 1766 0 
Q 1100 0 847 248 
Q 594 497 594 1153 
L 594 3053 
L 172 3053 
L 172 3500 
L 594 3500 
L 594 4494 
L 1172 4494 
z
" transform="scale(0.015625)"/>
       </defs>
       <use xlink:href="#DejaVuSans-55"/>
       <use xlink:href="#DejaVuSans-48" transform="translate(38.90625 0)"/>
       <use xlink:href="#DejaVuSans-13af" transform="translate(100.4375 0)"/>
       <use xlink:href="#DejaVuSans-51" transform="translate(163.421875 0)"/>
       <use xlink:href="#DejaVuSans-48" transform="translate(226.796875 0)"/>
       <use xlink:href="#DejaVuSans-50" transform="translate(288.328125 0)"/>
       <use xlink:href="#DejaVuSans-48" transform="translate(385.734375 0)"/>
       <use xlink:href="#DejaVuSans-51" transform="translate(447.265625 0)"/>
       <use xlink:href="#DejaVuSans-57" transform="translate(510.640625 0)"/>
      </g>
      <!-- $T{=}1\to16$ -->
      <g style="fill: #5b6470" transform="translate(74.711047 281.610457) scale(0.096 -0.096)">
       <defs>
        <path id="DejaVuSans-Oblique-37" d="M 378 4666 
L 4325 4666 
L 4225 4134 
L 2559 4134 
L 1759 0 
L 1125 0 
L 1925 4134 
L 275 4134 
L 378 4666 
z
" transform="scale(0.015625)"/>
        <path id="DejaVuSans-20" d="M 678 2906 
L 4684 2906 
L 4684 2381 
L 678 2381 
L 678 2906 
z
M 678 1631 
L 4684 1631 
L 4684 1100 
L 678 1100 
L 678 1631 
z
" transform="scale(0.015625)"/>
        <path id="DejaVuSans-14" d="M 794 531 
L 1825 531 
L 1825 4091 
L 703 3866 
L 703 4441 
L 1819 4666 
L 2450 4666 
L 2450 531 
L 3481 531 
L 3481 0 
L 794 0 
L 794 531 
z
" transform="scale(0.015625)"/>
        <path id="DejaVuSans-c1c" d="M 5050 2147 
L 5050 1866 
L 3822 638 
L 3447 1013 
L 4175 1741 
L 366 1741 
L 366 2272 
L 4175 2272 
L 3447 3000 
L 3822 3375 
L 5050 2147 
z
" transform="scale(0.015625)"/>
        <path id="DejaVuSans-19" d="M 2113 2584 
Q 1688 2584 1439 2293 
Q 1191 2003 1191 1497 
Q 1191 994 1439 701 
Q 1688 409 2113 409 
Q 2538 409 2786 701 
Q 3034 994 3034 1497 
Q 3034 2003 2786 2293 
Q 2538 2584 2113 2584 
z
M 3366 4563 
L 3366 3988 
Q 3128 4100 2886 4159 
Q 2644 4219 2406 4219 
Q 1781 4219 1451 3797 
Q 1122 3375 1075 2522 
Q 1259 2794 1537 2939 
Q 1816 3084 2150 3084 
Q 2853 3084 3261 2657 
Q 3669 2231 3669 1497 
Q 3669 778 3244 343 
Q 2819 -91 2113 -91 
Q 1303 -91 875 529 
Q 447 1150 447 2328 
Q 447 3434 972 4092 
Q 1497 4750 2381 4750 
Q 2619 4750 2861 4703 
Q 3103 4656 3366 4563 
z
" transform="scale(0.015625)"/>
       </defs>
       <use xlink:href="#DejaVuSans-Oblique-37" transform="translate(0 0.78125)"/>
       <use xlink:href="#DejaVuSans-20" transform="translate(80.566406 0.78125)"/>
       <use xlink:href="#DejaVuSans-14" transform="translate(183.837891 0.78125)"/>
       <use xlink:href="#DejaVuSans-c1c" transform="translate(266.943359 0.78125)"/>
       <use xlink:href="#DejaVuSans-14" transform="translate(370.214844 0.78125)"/>
       <use xlink:href="#DejaVuSans-19" transform="translate(433.837891 0.78125)"/>
      </g>
     </g>
    </g>
    <g id="xtick_2">
     <g id="line2d_3">
      <path d="M 160.010766 254.833145 
L 160.010766 21.938203 
" clip-path="url(#p36cd9a4240)" style="fill: none; stroke: #ecf1f0; stroke-width: 0.8; stroke-linecap: square"/>
     </g>
     <g id="line2d_4">
      <g>
       <use xlink:href="#m51148817fa" x="160.010766" y="254.833145" style="fill: #5b6470; stroke: #5b6470; stroke-width: 0.8"/>
      </g>
     </g>
     <g id="text_2">
      <!-- training -->
      <g style="fill: #5b6470" transform="translate(141.416016 270.088582) scale(0.096 -0.096)">
       <defs>
        <path id="DejaVuSans-44" d="M 2194 1759 
Q 1497 1759 1228 1600 
Q 959 1441 959 1056 
Q 959 750 1161 570 
Q 1363 391 1709 391 
Q 2188 391 2477 730 
Q 2766 1069 2766 1631 
L 2766 1759 
L 2194 1759 
z
M 3341 1997 
L 3341 0 
L 2766 0 
L 2766 531 
Q 2569 213 2275 61 
Q 1981 -91 1556 -91 
Q 1019 -91 701 211 
Q 384 513 384 1019 
Q 384 1609 779 1909 
Q 1175 2209 1959 2209 
L 2766 2209 
L 2766 2266 
Q 2766 2663 2505 2880 
Q 2244 3097 1772 3097 
Q 1472 3097 1187 3025 
Q 903 2953 641 2809 
L 641 3341 
Q 956 3463 1253 3523 
Q 1550 3584 1831 3584 
Q 2591 3584 2966 3190 
Q 3341 2797 3341 1997 
z
" transform="scale(0.015625)"/>
        <path id="DejaVuSans-4c" d="M 603 3500 
L 1178 3500 
L 1178 0 
L 603 0 
L 603 3500 
z
M 603 4863 
L 1178 4863 
L 1178 4134 
L 603 4134 
L 603 4863 
z
" transform="scale(0.015625)"/>
        <path id="DejaVuSans-4a" d="M 2906 1791 
Q 2906 2416 2648 2759 
Q 2391 3103 1925 3103 
Q 1463 3103 1205 2759 
Q 947 2416 947 1791 
Q 947 1169 1205 825 
Q 1463 481 1925 481 
Q 2391 481 2648 825 
Q 2906 1169 2906 1791 
z
M 3481 434 
Q 3481 -459 3084 -895 
Q 2688 -1331 1869 -1331 
Q 1566 -1331 1297 -1286 
Q 1028 -1241 775 -1147 
L 775 -588 
Q 1028 -725 1275 -790 
Q 1522 -856 1778 -856 
Q 2344 -856 2625 -561 
Q 2906 -266 2906 331 
L 2906 616 
Q 2728 306 2450 153 
Q 2172 0 1784 0 
Q 1141 0 747 490 
Q 353 981 353 1791 
Q 353 2603 747 3093 
Q 1141 3584 1784 3584 
Q 2172 3584 2450 3431 
Q 2728 3278 2906 2969 
L 2906 3500 
L 3481 3500 
L 3481 434 
z
" transform="scale(0.015625)"/>
       </defs>
       <use xlink:href="#DejaVuSans-57"/>
       <use xlink:href="#DejaVuSans-55" transform="translate(39.203125 0)"/>
       <use xlink:href="#DejaVuSans-44" transform="translate(80.3125 0)"/>
       <use xlink:href="#DejaVuSans-4c" transform="translate(141.59375 0)"/>
       <use xlink:href="#DejaVuSans-51" transform="translate(169.375 0)"/>
       <use xlink:href="#DejaVuSans-4c" transform="translate(232.75 0)"/>
       <use xlink:href="#DejaVuSans-51" transform="translate(260.53125 0)"/>
       <use xlink:href="#DejaVuSans-4a" transform="translate(323.90625 0)"/>
      </g>
      <!-- 30k$\to$90k -->
      <g style="fill: #5b6470" transform="translate(136.298766 281.612707) scale(0.096 -0.096)">
       <defs>
        <path id="DejaVuSans-16" d="M 2597 2516 
Q 3050 2419 3304 2112 
Q 3559 1806 3559 1356 
Q 3559 666 3084 287 
Q 2609 -91 1734 -91 
Q 1441 -91 1130 -33 
Q 819 25 488 141 
L 488 750 
Q 750 597 1062 519 
Q 1375 441 1716 441 
Q 2309 441 2620 675 
Q 2931 909 2931 1356 
Q 2931 1769 2642 2001 
Q 2353 2234 1838 2234 
L 1294 2234 
L 1294 2753 
L 1863 2753 
Q 2328 2753 2575 2939 
Q 2822 3125 2822 3475 
Q 2822 3834 2567 4026 
Q 2313 4219 1838 4219 
Q 1578 4219 1281 4162 
Q 984 4106 628 3988 
L 628 4550 
Q 988 4650 1302 4700 
Q 1616 4750 1894 4750 
Q 2613 4750 3031 4423 
Q 3450 4097 3450 3541 
Q 3450 3153 3228 2886 
Q 3006 2619 2597 2516 
z
" transform="scale(0.015625)"/>
        <path id="DejaVuSans-13" d="M 2034 4250 
Q 1547 4250 1301 3770 
Q 1056 3291 1056 2328 
Q 1056 1369 1301 889 
Q 1547 409 2034 409 
Q 2525 409 2770 889 
Q 3016 1369 3016 2328 
Q 3016 3291 2770 3770 
Q 2525 4250 2034 4250 
z
M 2034 4750 
Q 2819 4750 3233 4129 
Q 3647 3509 3647 2328 
Q 3647 1150 3233 529 
Q 2819 -91 2034 -91 
Q 1250 -91 836 529 
Q 422 1150 422 2328 
Q 422 3509 836 4129 
Q 1250 4750 2034 4750 
z
" transform="scale(0.015625)"/>
        <path id="DejaVuSans-4e" d="M 581 4863 
L 1159 4863 
L 1159 1991 
L 2875 3500 
L 3609 3500 
L 1753 1863 
L 3688 0 
L 2938 0 
L 1159 1709 
L 1159 0 
L 581 0 
L 581 4863 
z
" transform="scale(0.015625)"/>
        <path id="DejaVuSans-1c" d="M 703 97 
L 703 672 
Q 941 559 1184 500 
Q 1428 441 1663 441 
Q 2288 441 2617 861 
Q 2947 1281 2994 2138 
Q 2813 1869 2534 1725 
Q 2256 1581 1919 1581 
Q 1219 1581 811 2004 
Q 403 2428 403 3163 
Q 403 3881 828 4315 
Q 1253 4750 1959 4750 
Q 2769 4750 3195 4129 
Q 3622 3509 3622 2328 
Q 3622 1225 3098 567 
Q 2575 -91 1691 -91 
Q 1453 -91 1209 -44 
Q 966 3 703 97 
z
M 1959 2075 
Q 2384 2075 2632 2365 
Q 2881 2656 2881 3163 
Q 2881 3666 2632 3958 
Q 2384 4250 1959 4250 
Q 1534 4250 1286 3958 
Q 1038 3666 1038 3163 
Q 1038 2656 1286 2365 
Q 1534 2075 1959 2075 
z
" transform="scale(0.015625)"/>
       </defs>
       <use xlink:href="#DejaVuSans-16" transform="translate(0 0.015625)"/>
       <use xlink:href="#DejaVuSans-13" transform="translate(63.623047 0.015625)"/>
       <use xlink:href="#DejaVuSans-4e" transform="translate(127.246094 0.015625)"/>
       <use xlink:href="#DejaVuSans-c1c" transform="translate(204.638672 0.015625)"/>
       <use xlink:href="#DejaVuSans-1c" transform="translate(307.910156 0.015625)"/>
       <use xlink:href="#DejaVuSans-13" transform="translate(371.533203 0.015625)"/>
       <use xlink:href="#DejaVuSans-4e" transform="translate(435.15625 0.015625)"/>
      </g>
     </g>
    </g>
    <g id="xtick_3">
     <g id="line2d_5">
      <path d="M 221.406485 254.833145 
L 221.406485 21.938203 
" clip-path="url(#p36cd9a4240)" style="fill: none; stroke: #ecf1f0; stroke-width: 0.8; stroke-linecap: square"/>
     </g>
     <g id="line2d_6">
      <g>
       <use xlink:href="#m51148817fa" x="221.406485" y="254.833145" style="fill: #5b6470; stroke: #5b6470; stroke-width: 0.8"/>
      </g>
     </g>
     <g id="text_3">
      <!-- parameters -->
      <g style="fill: #5b6470" transform="translate(193.564985 270.087832) scale(0.096 -0.096)">
       <defs>
        <path id="DejaVuSans-53" d="M 1159 525 
L 1159 -1331 
L 581 -1331 
L 581 3500 
L 1159 3500 
L 1159 2969 
Q 1341 3281 1617 3432 
Q 1894 3584 2278 3584 
Q 2916 3584 3314 3078 
Q 3713 2572 3713 1747 
Q 3713 922 3314 415 
Q 2916 -91 2278 -91 
Q 1894 -91 1617 61 
Q 1341 213 1159 525 
z
M 3116 1747 
Q 3116 2381 2855 2742 
Q 2594 3103 2138 3103 
Q 1681 3103 1420 2742 
Q 1159 2381 1159 1747 
Q 1159 1113 1420 752 
Q 1681 391 2138 391 
Q 2594 391 2855 752 
Q 3116 1113 3116 1747 
z
" transform="scale(0.015625)"/>
        <path id="DejaVuSans-56" d="M 2834 3397 
L 2834 2853 
Q 2591 2978 2328 3040 
Q 2066 3103 1784 3103 
Q 1356 3103 1142 2972 
Q 928 2841 928 2578 
Q 928 2378 1081 2264 
Q 1234 2150 1697 2047 
L 1894 2003 
Q 2506 1872 2764 1633 
Q 3022 1394 3022 966 
Q 3022 478 2636 193 
Q 2250 -91 1575 -91 
Q 1294 -91 989 -36 
Q 684 19 347 128 
L 347 722 
Q 666 556 975 473 
Q 1284 391 1588 391 
Q 1994 391 2212 530 
Q 2431 669 2431 922 
Q 2431 1156 2273 1281 
Q 2116 1406 1581 1522 
L 1381 1569 
Q 847 1681 609 1914 
Q 372 2147 372 2553 
Q 372 3047 722 3315 
Q 1072 3584 1716 3584 
Q 2034 3584 2315 3537 
Q 2597 3491 2834 3397 
z
" transform="scale(0.015625)"/>
       </defs>
       <use xlink:href="#DejaVuSans-53"/>
       <use xlink:href="#DejaVuSans-44" transform="translate(63.484375 0)"/>
       <use xlink:href="#DejaVuSans-55" transform="translate(124.765625 0)"/>
       <use xlink:href="#DejaVuSans-44" transform="translate(165.875 0)"/>
       <use xlink:href="#DejaVuSans-50" transform="translate(227.15625 0)"/>
       <use xlink:href="#DejaVuSans-48" transform="translate(324.5625 0)"/>
       <use xlink:href="#DejaVuSans-57" transform="translate(386.09375 0)"/>
       <use xlink:href="#DejaVuSans-48" transform="translate(425.296875 0)"/>
       <use xlink:href="#DejaVuSans-55" transform="translate(486.828125 0)"/>
       <use xlink:href="#DejaVuSans-56" transform="translate(527.9375 0)"/>
      </g>
      <!-- 20M$\to$276M -->
      <g style="fill: #5b6470" transform="translate(191.934485 281.609707) scale(0.096 -0.096)">
       <defs>
        <path id="DejaVuSans-15" d="M 1228 531 
L 3431 531 
L 3431 0 
L 469 0 
L 469 531 
Q 828 903 1448 1529 
Q 2069 2156 2228 2338 
Q 2531 2678 2651 2914 
Q 2772 3150 2772 3378 
Q 2772 3750 2511 3984 
Q 2250 4219 1831 4219 
Q 1534 4219 1204 4116 
Q 875 4013 500 3803 
L 500 4441 
Q 881 4594 1212 4672 
Q 1544 4750 1819 4750 
Q 2544 4750 2975 4387 
Q 3406 4025 3406 3419 
Q 3406 3131 3298 2873 
Q 3191 2616 2906 2266 
Q 2828 2175 2409 1742 
Q 1991 1309 1228 531 
z
" transform="scale(0.015625)"/>
        <path id="DejaVuSans-30" d="M 628 4666 
L 1569 4666 
L 2759 1491 
L 3956 4666 
L 4897 4666 
L 4897 0 
L 4281 0 
L 4281 4097 
L 3078 897 
L 2444 897 
L 1241 4097 
L 1241 0 
L 628 0 
L 628 4666 
z
" transform="scale(0.015625)"/>
        <path id="DejaVuSans-1a" d="M 525 4666 
L 3525 4666 
L 3525 4397 
L 1831 0 
L 1172 0 
L 2766 4134 
L 525 4134 
L 525 4666 
z
" transform="scale(0.015625)"/>
       </defs>
       <use xlink:href="#DejaVuSans-15" transform="translate(0 0.78125)"/>
       <use xlink:href="#DejaVuSans-13" transform="translate(63.623047 0.78125)"/>
       <use xlink:href="#DejaVuSans-30" transform="translate(127.246094 0.78125)"/>
       <use xlink:href="#DejaVuSans-c1c" transform="translate(233.007812 0.78125)"/>
       <use xlink:href="#DejaVuSans-15" transform="translate(336.279297 0.78125)"/>
       <use xlink:href="#DejaVuSans-1a" transform="translate(399.902344 0.78125)"/>
       <use xlink:href="#DejaVuSans-19" transform="translate(463.525391 0.78125)"/>
       <use xlink:href="#DejaVuSans-30" transform="translate(527.148438 0.78125)"/>
      </g>
     </g>
    </g>
    <g id="xtick_4">
     <g id="line2d_7">
      <path d="M 282.802204 254.833145 
L 282.802204 21.938203 
" clip-path="url(#p36cd9a4240)" style="fill: none; stroke: #ecf1f0; stroke-width: 0.8; stroke-linecap: square"/>
     </g>
     <g id="line2d_8">
      <g>
       <use xlink:href="#m51148817fa" x="282.802204" y="254.833145" style="fill: #5b6470; stroke: #5b6470; stroke-width: 0.8"/>
      </g>
     </g>
     <g id="text_4">
      <!-- search -->
      <g style="fill: #5b6470" transform="translate(266.857954 270.088582) scale(0.096 -0.096)">
       <defs>
        <path id="DejaVuSans-46" d="M 3122 3366 
L 3122 2828 
Q 2878 2963 2633 3030 
Q 2388 3097 2138 3097 
Q 1578 3097 1268 2742 
Q 959 2388 959 1747 
Q 959 1106 1268 751 
Q 1578 397 2138 397 
Q 2388 397 2633 464 
Q 2878 531 3122 666 
L 3122 134 
Q 2881 22 2623 -34 
Q 2366 -91 2075 -91 
Q 1284 -91 818 406 
Q 353 903 353 1747 
Q 353 2603 823 3093 
Q 1294 3584 2113 3584 
Q 2378 3584 2631 3529 
Q 2884 3475 3122 3366 
z
" transform="scale(0.015625)"/>
        <path id="DejaVuSans-4b" d="M 3513 2113 
L 3513 0 
L 2938 0 
L 2938 2094 
Q 2938 2591 2744 2837 
Q 2550 3084 2163 3084 
Q 1697 3084 1428 2787 
Q 1159 2491 1159 1978 
L 1159 0 
L 581 0 
L 581 4863 
L 1159 4863 
L 1159 2956 
Q 1366 3272 1645 3428 
Q 1925 3584 2291 3584 
Q 2894 3584 3203 3211 
Q 3513 2838 3513 2113 
z
" transform="scale(0.015625)"/>
       </defs>
       <use xlink:href="#DejaVuSans-56"/>
       <use xlink:href="#DejaVuSans-48" transform="translate(52.09375 0)"/>
       <use xlink:href="#DejaVuSans-44" transform="translate(113.625 0)"/>
       <use xlink:href="#DejaVuSans-55" transform="translate(174.90625 0)"/>
       <use xlink:href="#DejaVuSans-46" transform="translate(213.8125 0)"/>
       <use xlink:href="#DejaVuSans-4b" transform="translate(268.796875 0)"/>
      </g>
      <!-- $K{=}2$ -->
      <g style="fill: #5b6470" transform="translate(270.706204 281.610457) scale(0.096 -0.096)">
       <defs>
        <path id="DejaVuSans-Oblique-2e" d="M 1081 4666 
L 1716 4666 
L 1331 2700 
L 3781 4666 
L 4622 4666 
L 1850 2438 
L 3878 0 
L 3109 0 
L 1247 2272 
L 806 0 
L 172 0 
L 1081 4666 
z
" transform="scale(0.015625)"/>
       </defs>
       <use xlink:href="#DejaVuSans-Oblique-2e" transform="translate(0 0.78125)"/>
       <use xlink:href="#DejaVuSans-20" transform="translate(85.058594 0.78125)"/>
       <use xlink:href="#DejaVuSans-15" transform="translate(188.330078 0.78125)"/>
      </g>
      <!-- same NFE -->
      <g style="fill: #5b6470" transform="translate(258.820954 293.132332) scale(0.096 -0.096)">
       <defs>
        <path id="DejaVuSans-3" transform="scale(0.015625)"/>
        <path id="DejaVuSans-31" d="M 628 4666 
L 1478 4666 
L 3547 763 
L 3547 4666 
L 4159 4666 
L 4159 0 
L 3309 0 
L 1241 3903 
L 1241 0 
L 628 0 
L 628 4666 
z
" transform="scale(0.015625)"/>
        <path id="DejaVuSans-29" d="M 628 4666 
L 3309 4666 
L 3309 4134 
L 1259 4134 
L 1259 2759 
L 3109 2759 
L 3109 2228 
L 1259 2228 
L 1259 0 
L 628 0 
L 628 4666 
z
" transform="scale(0.015625)"/>
        <path id="DejaVuSans-28" d="M 628 4666 
L 3578 4666 
L 3578 4134 
L 1259 4134 
L 1259 2753 
L 3481 2753 
L 3481 2222 
L 1259 2222 
L 1259 531 
L 3634 531 
L 3634 0 
L 628 0 
L 628 4666 
z
" transform="scale(0.015625)"/>
       </defs>
       <use xlink:href="#DejaVuSans-56"/>
       <use xlink:href="#DejaVuSans-44" transform="translate(52.09375 0)"/>
       <use xlink:href="#DejaVuSans-50" transform="translate(113.375 0)"/>
       <use xlink:href="#DejaVuSans-48" transform="translate(210.78125 0)"/>
       <use xlink:href="#DejaVuSans-3" transform="translate(272.3125 0)"/>
       <use xlink:href="#DejaVuSans-31" transform="translate(304.09375 0)"/>
       <use xlink:href="#DejaVuSans-29" transform="translate(378.90625 0)"/>
       <use xlink:href="#DejaVuSans-28" transform="translate(436.421875 0)"/>
      </g>
     </g>
    </g>
    <g id="xtick_5">
     <g id="line2d_9">
      <path d="M 344.197923 254.833145 
L 344.197923 21.938203 
" clip-path="url(#p36cd9a4240)" style="fill: none; stroke: #ecf1f0; stroke-width: 0.8; stroke-linecap: square"/>
     </g>
     <g id="line2d_10">
      <g>
       <use xlink:href="#m51148817fa" x="344.197923" y="254.833145" style="fill: #5b6470; stroke: #5b6470; stroke-width: 0.8"/>
      </g>
     </g>
     <g id="text_5">
      <!-- search -->
      <g style="fill: #5b6470" transform="translate(328.253673 270.088582) scale(0.096 -0.096)">
       <use xlink:href="#DejaVuSans-56"/>
       <use xlink:href="#DejaVuSans-48" transform="translate(52.09375 0)"/>
       <use xlink:href="#DejaVuSans-44" transform="translate(113.625 0)"/>
       <use xlink:href="#DejaVuSans-55" transform="translate(174.90625 0)"/>
       <use xlink:href="#DejaVuSans-46" transform="translate(213.8125 0)"/>
       <use xlink:href="#DejaVuSans-4b" transform="translate(268.796875 0)"/>
      </g>
      <!-- $K{=}8$ -->
      <g style="fill: #5b6470" transform="translate(332.101923 281.610457) scale(0.096 -0.096)">
       <defs>
        <path id="DejaVuSans-1b" d="M 2034 2216 
Q 1584 2216 1326 1975 
Q 1069 1734 1069 1313 
Q 1069 891 1326 650 
Q 1584 409 2034 409 
Q 2484 409 2743 651 
Q 3003 894 3003 1313 
Q 3003 1734 2745 1975 
Q 2488 2216 2034 2216 
z
M 1403 2484 
Q 997 2584 770 2862 
Q 544 3141 544 3541 
Q 544 4100 942 4425 
Q 1341 4750 2034 4750 
Q 2731 4750 3128 4425 
Q 3525 4100 3525 3541 
Q 3525 3141 3298 2862 
Q 3072 2584 2669 2484 
Q 3125 2378 3379 2068 
Q 3634 1759 3634 1313 
Q 3634 634 3220 271 
Q 2806 -91 2034 -91 
Q 1263 -91 848 271 
Q 434 634 434 1313 
Q 434 1759 690 2068 
Q 947 2378 1403 2484 
z
M 1172 3481 
Q 1172 3119 1398 2916 
Q 1625 2713 2034 2713 
Q 2441 2713 2670 2916 
Q 2900 3119 2900 3481 
Q 2900 3844 2670 4047 
Q 2441 4250 2034 4250 
Q 1625 4250 1398 4047 
Q 1172 3844 1172 3481 
z
" transform="scale(0.015625)"/>
       </defs>
       <use xlink:href="#DejaVuSans-Oblique-2e" transform="translate(0 0.78125)"/>
       <use xlink:href="#DejaVuSans-20" transform="translate(85.058594 0.78125)"/>
       <use xlink:href="#DejaVuSans-1b" transform="translate(188.330078 0.78125)"/>
      </g>
      <!-- same NFE -->
      <g style="fill: #5b6470" transform="translate(320.216673 293.132332) scale(0.096 -0.096)">
       <use xlink:href="#DejaVuSans-56"/>
       <use xlink:href="#DejaVuSans-44" transform="translate(52.09375 0)"/>
       <use xlink:href="#DejaVuSans-50" transform="translate(113.375 0)"/>
       <use xlink:href="#DejaVuSans-48" transform="translate(210.78125 0)"/>
       <use xlink:href="#DejaVuSans-3" transform="translate(272.3125 0)"/>
       <use xlink:href="#DejaVuSans-31" transform="translate(304.09375 0)"/>
       <use xlink:href="#DejaVuSans-29" transform="translate(378.90625 0)"/>
       <use xlink:href="#DejaVuSans-28" transform="translate(436.421875 0)"/>
      </g>
     </g>
    </g>
    <g id="xtick_6">
     <g id="line2d_11">
      <path d="M 405.593642 254.833145 
L 405.593642 21.938203 
" clip-path="url(#p36cd9a4240)" style="fill: none; stroke: #ecf1f0; stroke-width: 0.8; stroke-linecap: square"/>
     </g>
     <g id="line2d_12">
      <g>
       <use xlink:href="#m51148817fa" x="405.593642" y="254.833145" style="fill: #5b6470; stroke: #5b6470; stroke-width: 0.8"/>
      </g>
     </g>
     <g id="text_6">
      <!-- guidance -->
      <g style="fill: #5b6470" transform="translate(383.547392 270.088582) scale(0.096 -0.096)">
       <defs>
        <path id="DejaVuSans-58" d="M 544 1381 
L 544 3500 
L 1119 3500 
L 1119 1403 
Q 1119 906 1312 657 
Q 1506 409 1894 409 
Q 2359 409 2629 706 
Q 2900 1003 2900 1516 
L 2900 3500 
L 3475 3500 
L 3475 0 
L 2900 0 
L 2900 538 
Q 2691 219 2414 64 
Q 2138 -91 1772 -91 
Q 1169 -91 856 284 
Q 544 659 544 1381 
z
M 1991 3584 
L 1991 3584 
z
" transform="scale(0.015625)"/>
        <path id="DejaVuSans-47" d="M 2906 2969 
L 2906 4863 
L 3481 4863 
L 3481 0 
L 2906 0 
L 2906 525 
Q 2725 213 2448 61 
Q 2172 -91 1784 -91 
Q 1150 -91 751 415 
Q 353 922 353 1747 
Q 353 2572 751 3078 
Q 1150 3584 1784 3584 
Q 2172 3584 2448 3432 
Q 2725 3281 2906 2969 
z
M 947 1747 
Q 947 1113 1208 752 
Q 1469 391 1925 391 
Q 2381 391 2643 752 
Q 2906 1113 2906 1747 
Q 2906 2381 2643 2742 
Q 2381 3103 1925 3103 
Q 1469 3103 1208 2742 
Q 947 2381 947 1747 
z
" transform="scale(0.015625)"/>
       </defs>
       <use xlink:href="#DejaVuSans-4a"/>
       <use xlink:href="#DejaVuSans-58" transform="translate(63.484375 0)"/>
       <use xlink:href="#DejaVuSans-4c" transform="translate(126.859375 0)"/>
       <use xlink:href="#DejaVuSans-47" transform="translate(154.640625 0)"/>
       <use xlink:href="#DejaVuSans-44" transform="translate(218.125 0)"/>
       <use xlink:href="#DejaVuSans-51" transform="translate(279.40625 0)"/>
       <use xlink:href="#DejaVuSans-46" transform="translate(342.78125 0)"/>
       <use xlink:href="#DejaVuSans-48" transform="translate(397.765625 0)"/>
      </g>
      <!-- $\gamma{=}0.5$ -->
      <g style="fill: #5b6470" transform="translate(389.225642 281.610457) scale(0.096 -0.096)">
       <defs>
        <path id="DejaVuSans-Oblique-347" d="M 1491 2950 
L 1838 788 
L 3456 3500 
L 4066 3500 
L 1972 0 
L 1713 -1331 
L 1138 -1331 
L 1397 0 
L 988 2613 
Q 925 3006 628 3006 
L 475 3006 
L 569 3500 
L 788 3500 
Q 1403 3500 1491 2950 
z
" transform="scale(0.015625)"/>
        <path id="DejaVuSans-11" d="M 684 794 
L 1344 794 
L 1344 0 
L 684 0 
L 684 794 
z
" transform="scale(0.015625)"/>
        <path id="DejaVuSans-18" d="M 691 4666 
L 3169 4666 
L 3169 4134 
L 1269 4134 
L 1269 2991 
Q 1406 3038 1543 3061 
Q 1681 3084 1819 3084 
Q 2600 3084 3056 2656 
Q 3513 2228 3513 1497 
Q 3513 744 3044 326 
Q 2575 -91 1722 -91 
Q 1428 -91 1123 -41 
Q 819 9 494 109 
L 494 744 
Q 775 591 1075 516 
Q 1375 441 1709 441 
Q 2250 441 2565 725 
Q 2881 1009 2881 1497 
Q 2881 1984 2565 2268 
Q 2250 2553 1709 2553 
Q 1456 2553 1204 2497 
Q 953 2441 691 2322 
L 691 4666 
z
" transform="scale(0.015625)"/>
       </defs>
       <use xlink:href="#DejaVuSans-Oblique-347" transform="translate(0 0.78125)"/>
       <use xlink:href="#DejaVuSans-20" transform="translate(78.662109 0.78125)"/>
       <use xlink:href="#DejaVuSans-13" transform="translate(181.933594 0.78125)"/>
       <use xlink:href="#DejaVuSans-11" transform="translate(245.556641 0.78125)"/>
       <use xlink:href="#DejaVuSans-18" transform="translate(277.34375 0.78125)"/>
      </g>
     </g>
    </g>
    <g id="xtick_7">
     <g id="line2d_13">
      <path d="M 466.989361 254.833145 
L 466.989361 21.938203 
" clip-path="url(#p36cd9a4240)" style="fill: none; stroke: #ecf1f0; stroke-width: 0.8; stroke-linecap: square"/>
     </g>
     <g id="line2d_14">
      <g>
       <use xlink:href="#m51148817fa" x="466.989361" y="254.833145" style="fill: #5b6470; stroke: #5b6470; stroke-width: 0.8"/>
      </g>
     </g>
     <g id="text_7">
      <!-- rate -->
      <g style="fill: #5b6470" transform="translate(457.239361 270.087832) scale(0.096 -0.096)">
       <use xlink:href="#DejaVuSans-55"/>
       <use xlink:href="#DejaVuSans-44" transform="translate(41.109375 0)"/>
       <use xlink:href="#DejaVuSans-57" transform="translate(102.390625 0)"/>
       <use xlink:href="#DejaVuSans-48" transform="translate(141.59375 0)"/>
      </g>
      <!-- matching -->
      <g style="fill: #5b6470" transform="translate(444.386611 281.610457) scale(0.096 -0.096)">
       <use xlink:href="#DejaVuSans-50"/>
       <use xlink:href="#DejaVuSans-44" transform="translate(97.40625 0)"/>
       <use xlink:href="#DejaVuSans-57" transform="translate(158.6875 0)"/>
       <use xlink:href="#DejaVuSans-46" transform="translate(197.890625 0)"/>
       <use xlink:href="#DejaVuSans-4b" transform="translate(252.875 0)"/>
       <use xlink:href="#DejaVuSans-4c" transform="translate(316.25 0)"/>
       <use xlink:href="#DejaVuSans-51" transform="translate(344.03125 0)"/>
       <use xlink:href="#DejaVuSans-4a" transform="translate(407.40625 0)"/>
      </g>
     </g>
    </g>
   </g>
   <g id="matplotlib.axis_2">
    <g id="ytick_1">
     <g id="line2d_15">
      <path d="M 59.260391 254.833145 
L 506.344017 254.833145 
" clip-path="url(#p36cd9a4240)" style="fill: none; stroke: #ecf1f0; stroke-width: 0.8; stroke-linecap: square"/>
     </g>
     <g id="line2d_16">
      <defs>
       <path id="maa6d50ce44" d="M 0 0 
L -3.5 0 
" style="stroke: #5b6470; stroke-width: 0.8"/>
      </defs>
      <g>
       <use xlink:href="#maa6d50ce44" x="59.260391" y="254.833145" style="fill: #5b6470; stroke: #5b6470; stroke-width: 0.8"/>
      </g>
     </g>
     <g id="text_8">
      <!-- 0.000 -->
      <g style="fill: #5b6470" transform="translate(22.200859 258.821915) scale(0.105 -0.105)">
       <use xlink:href="#DejaVuSans-13"/>
       <use xlink:href="#DejaVuSans-11" transform="translate(63.625 0)"/>
       <use xlink:href="#DejaVuSans-13" transform="translate(95.40625 0)"/>
       <use xlink:href="#DejaVuSans-13" transform="translate(159.03125 0)"/>
       <use xlink:href="#DejaVuSans-13" transform="translate(222.65625 0)"/>
      </g>
     </g>
    </g>
    <g id="ytick_2">
     <g id="line2d_17">
      <path d="M 59.260391 225.121765 
L 506.344017 225.121765 
" clip-path="url(#p36cd9a4240)" style="fill: none; stroke: #ecf1f0; stroke-width: 0.8; stroke-linecap: square"/>
     </g>
     <g id="line2d_18">
      <g>
       <use xlink:href="#maa6d50ce44" x="59.260391" y="225.121765" style="fill: #5b6470; stroke: #5b6470; stroke-width: 0.8"/>
      </g>
     </g>
     <g id="text_9">
      <!-- 0.025 -->
      <g style="fill: #5b6470" transform="translate(22.200859 229.110535) scale(0.105 -0.105)">
       <use xlink:href="#DejaVuSans-13"/>
       <use xlink:href="#DejaVuSans-11" transform="translate(63.625 0)"/>
       <use xlink:href="#DejaVuSans-13" transform="translate(95.40625 0)"/>
       <use xlink:href="#DejaVuSans-15" transform="translate(159.03125 0)"/>
       <use xlink:href="#DejaVuSans-18" transform="translate(222.65625 0)"/>
      </g>
     </g>
    </g>
    <g id="ytick_3">
     <g id="line2d_19">
      <path d="M 59.260391 195.410386 
L 506.344017 195.410386 
" clip-path="url(#p36cd9a4240)" style="fill: none; stroke: #ecf1f0; stroke-width: 0.8; stroke-linecap: square"/>
     </g>
     <g id="line2d_20">
      <g>
       <use xlink:href="#maa6d50ce44" x="59.260391" y="195.410386" style="fill: #5b6470; stroke: #5b6470; stroke-width: 0.8"/>
      </g>
     </g>
     <g id="text_10">
      <!-- 0.050 -->
      <g style="fill: #5b6470" transform="translate(22.200859 199.399155) scale(0.105 -0.105)">
       <use xlink:href="#DejaVuSans-13"/>
       <use xlink:href="#DejaVuSans-11" transform="translate(63.625 0)"/>
       <use xlink:href="#DejaVuSans-13" transform="translate(95.40625 0)"/>
       <use xlink:href="#DejaVuSans-18" transform="translate(159.03125 0)"/>
       <use xlink:href="#DejaVuSans-13" transform="translate(222.65625 0)"/>
      </g>
     </g>
    </g>
    <g id="ytick_4">
     <g id="line2d_21">
      <path d="M 59.260391 165.699006 
L 506.344017 165.699006 
" clip-path="url(#p36cd9a4240)" style="fill: none; stroke: #ecf1f0; stroke-width: 0.8; stroke-linecap: square"/>
     </g>
     <g id="line2d_22">
      <g>
       <use xlink:href="#maa6d50ce44" x="59.260391" y="165.699006" style="fill: #5b6470; stroke: #5b6470; stroke-width: 0.8"/>
      </g>
     </g>
     <g id="text_11">
      <!-- 0.075 -->
      <g style="fill: #5b6470" transform="translate(22.200859 169.687776) scale(0.105 -0.105)">
       <use xlink:href="#DejaVuSans-13"/>
       <use xlink:href="#DejaVuSans-11" transform="translate(63.625 0)"/>
       <use xlink:href="#DejaVuSans-13" transform="translate(95.40625 0)"/>
       <use xlink:href="#DejaVuSans-1a" transform="translate(159.03125 0)"/>
       <use xlink:href="#DejaVuSans-18" transform="translate(222.65625 0)"/>
      </g>
     </g>
    </g>
    <g id="ytick_5">
     <g id="line2d_23">
      <path d="M 59.260391 135.987627 
L 506.344017 135.987627 
" clip-path="url(#p36cd9a4240)" style="fill: none; stroke: #ecf1f0; stroke-width: 0.8; stroke-linecap: square"/>
     </g>
     <g id="line2d_24">
      <g>
       <use xlink:href="#maa6d50ce44" x="59.260391" y="135.987627" style="fill: #5b6470; stroke: #5b6470; stroke-width: 0.8"/>
      </g>
     </g>
     <g id="text_12">
      <!-- 0.100 -->
      <g style="fill: #5b6470" transform="translate(22.200859 139.976396) scale(0.105 -0.105)">
       <use xlink:href="#DejaVuSans-13"/>
       <use xlink:href="#DejaVuSans-11" transform="translate(63.625 0)"/>
       <use xlink:href="#DejaVuSans-14" transform="translate(95.40625 0)"/>
       <use xlink:href="#DejaVuSans-13" transform="translate(159.03125 0)"/>
       <use xlink:href="#DejaVuSans-13" transform="translate(222.65625 0)"/>
      </g>
     </g>
    </g>
    <g id="ytick_6">
     <g id="line2d_25">
      <path d="M 59.260391 106.276247 
L 506.344017 106.276247 
" clip-path="url(#p36cd9a4240)" style="fill: none; stroke: #ecf1f0; stroke-width: 0.8; stroke-linecap: square"/>
     </g>
     <g id="line2d_26">
      <g>
       <use xlink:href="#maa6d50ce44" x="59.260391" y="106.276247" style="fill: #5b6470; stroke: #5b6470; stroke-width: 0.8"/>
      </g>
     </g>
     <g id="text_13">
      <!-- 0.125 -->
      <g style="fill: #5b6470" transform="translate(22.200859 110.265017) scale(0.105 -0.105)">
       <use xlink:href="#DejaVuSans-13"/>
       <use xlink:href="#DejaVuSans-11" transform="translate(63.625 0)"/>
       <use xlink:href="#DejaVuSans-14" transform="translate(95.40625 0)"/>
       <use xlink:href="#DejaVuSans-15" transform="translate(159.03125 0)"/>
       <use xlink:href="#DejaVuSans-18" transform="translate(222.65625 0)"/>
      </g>
     </g>
    </g>
    <g id="ytick_7">
     <g id="line2d_27">
      <path d="M 59.260391 76.564868 
L 506.344017 76.564868 
" clip-path="url(#p36cd9a4240)" style="fill: none; stroke: #ecf1f0; stroke-width: 0.8; stroke-linecap: square"/>
     </g>
     <g id="line2d_28">
      <g>
       <use xlink:href="#maa6d50ce44" x="59.260391" y="76.564868" style="fill: #5b6470; stroke: #5b6470; stroke-width: 0.8"/>
      </g>
     </g>
     <g id="text_14">
      <!-- 0.150 -->
      <g style="fill: #5b6470" transform="translate(22.200859 80.553637) scale(0.105 -0.105)">
       <use xlink:href="#DejaVuSans-13"/>
       <use xlink:href="#DejaVuSans-11" transform="translate(63.625 0)"/>
       <use xlink:href="#DejaVuSans-14" transform="translate(95.40625 0)"/>
       <use xlink:href="#DejaVuSans-18" transform="translate(159.03125 0)"/>
       <use xlink:href="#DejaVuSans-13" transform="translate(222.65625 0)"/>
      </g>
     </g>
    </g>
    <g id="ytick_8">
     <g id="line2d_29">
      <path d="M 59.260391 46.853488 
L 506.344017 46.853488 
" clip-path="url(#p36cd9a4240)" style="fill: none; stroke: #ecf1f0; stroke-width: 0.8; stroke-linecap: square"/>
     </g>
     <g id="line2d_30">
      <g>
       <use xlink:href="#maa6d50ce44" x="59.260391" y="46.853488" style="fill: #5b6470; stroke: #5b6470; stroke-width: 0.8"/>
      </g>
     </g>
     <g id="text_15">
      <!-- 0.175 -->
      <g style="fill: #5b6470" transform="translate(22.200859 50.842258) scale(0.105 -0.105)">
       <use xlink:href="#DejaVuSans-13"/>
       <use xlink:href="#DejaVuSans-11" transform="translate(63.625 0)"/>
       <use xlink:href="#DejaVuSans-14" transform="translate(95.40625 0)"/>
       <use xlink:href="#DejaVuSans-1a" transform="translate(159.03125 0)"/>
       <use xlink:href="#DejaVuSans-18" transform="translate(222.65625 0)"/>
      </g>
     </g>
    </g>
    <g id="text_16">
     <!-- SIM-o gain (WavLM-L) -->
     <g style="fill: #14181c" transform="translate(15.558281 197.931768) rotate(-90) scale(0.11 -0.11)">
      <defs>
       <path id="DejaVuSans-36" d="M 3425 4513 
L 3425 3897 
Q 3066 4069 2747 4153 
Q 2428 4238 2131 4238 
Q 1616 4238 1336 4038 
Q 1056 3838 1056 3469 
Q 1056 3159 1242 3001 
Q 1428 2844 1947 2747 
L 2328 2669 
Q 3034 2534 3370 2195 
Q 3706 1856 3706 1288 
Q 3706 609 3251 259 
Q 2797 -91 1919 -91 
Q 1588 -91 1214 -16 
Q 841 59 441 206 
L 441 856 
Q 825 641 1194 531 
Q 1563 422 1919 422 
Q 2459 422 2753 634 
Q 3047 847 3047 1241 
Q 3047 1584 2836 1778 
Q 2625 1972 2144 2069 
L 1759 2144 
Q 1053 2284 737 2584 
Q 422 2884 422 3419 
Q 422 4038 858 4394 
Q 1294 4750 2059 4750 
Q 2388 4750 2728 4690 
Q 3069 4631 3425 4513 
z
" transform="scale(0.015625)"/>
       <path id="DejaVuSans-2c" d="M 628 4666 
L 1259 4666 
L 1259 0 
L 628 0 
L 628 4666 
z
" transform="scale(0.015625)"/>
       <path id="DejaVuSans-10" d="M 313 2009 
L 1997 2009 
L 1997 1497 
L 313 1497 
L 313 2009 
z
" transform="scale(0.015625)"/>
       <path id="DejaVuSans-52" d="M 1959 3097 
Q 1497 3097 1228 2736 
Q 959 2375 959 1747 
Q 959 1119 1226 758 
Q 1494 397 1959 397 
Q 2419 397 2687 759 
Q 2956 1122 2956 1747 
Q 2956 2369 2687 2733 
Q 2419 3097 1959 3097 
z
M 1959 3584 
Q 2709 3584 3137 3096 
Q 3566 2609 3566 1747 
Q 3566 888 3137 398 
Q 2709 -91 1959 -91 
Q 1206 -91 779 398 
Q 353 888 353 1747 
Q 353 2609 779 3096 
Q 1206 3584 1959 3584 
z
" transform="scale(0.015625)"/>
       <path id="DejaVuSans-b" d="M 1984 4856 
Q 1566 4138 1362 3434 
Q 1159 2731 1159 2009 
Q 1159 1288 1364 580 
Q 1569 -128 1984 -844 
L 1484 -844 
Q 1016 -109 783 600 
Q 550 1309 550 2009 
Q 550 2706 781 3412 
Q 1013 4119 1484 4856 
L 1984 4856 
z
" transform="scale(0.015625)"/>
       <path id="DejaVuSans-3a" d="M 213 4666 
L 850 4666 
L 1831 722 
L 2809 4666 
L 3519 4666 
L 4500 722 
L 5478 4666 
L 6119 4666 
L 4947 0 
L 4153 0 
L 3169 4050 
L 2175 0 
L 1381 0 
L 213 4666 
z
" transform="scale(0.015625)"/>
       <path id="DejaVuSans-59" d="M 191 3500 
L 800 3500 
L 1894 563 
L 2988 3500 
L 3597 3500 
L 2284 0 
L 1503 0 
L 191 3500 
z
" transform="scale(0.015625)"/>
       <path id="DejaVuSans-2f" d="M 628 4666 
L 1259 4666 
L 1259 531 
L 3531 531 
L 3531 0 
L 628 0 
L 628 4666 
z
" transform="scale(0.015625)"/>
       <path id="DejaVuSans-c" d="M 513 4856 
L 1013 4856 
Q 1481 4119 1714 3412 
Q 1947 2706 1947 2009 
Q 1947 1309 1714 600 
Q 1481 -109 1013 -844 
L 513 -844 
Q 928 -128 1133 580 
Q 1338 1288 1338 2009 
Q 1338 2731 1133 3434 
Q 928 4138 513 4856 
z
" transform="scale(0.015625)"/>
      </defs>
      <use xlink:href="#DejaVuSans-36"/>
      <use xlink:href="#DejaVuSans-2c" transform="translate(63.484375 0)"/>
      <use xlink:href="#DejaVuSans-30" transform="translate(92.984375 0)"/>
      <use xlink:href="#DejaVuSans-10" transform="translate(179.265625 0)"/>
      <use xlink:href="#DejaVuSans-52" transform="translate(217.203125 0)"/>
      <use xlink:href="#DejaVuSans-3" transform="translate(278.390625 0)"/>
      <use xlink:href="#DejaVuSans-4a" transform="translate(310.171875 0)"/>
      <use xlink:href="#DejaVuSans-44" transform="translate(373.65625 0)"/>
      <use xlink:href="#DejaVuSans-4c" transform="translate(434.9375 0)"/>
      <use xlink:href="#DejaVuSans-51" transform="translate(462.71875 0)"/>
      <use xlink:href="#DejaVuSans-3" transform="translate(526.09375 0)"/>
      <use xlink:href="#DejaVuSans-b" transform="translate(557.875 0)"/>
      <use xlink:href="#DejaVuSans-3a" transform="translate(596.890625 0)"/>
      <use xlink:href="#DejaVuSans-44" transform="translate(689.375 0)"/>
      <use xlink:href="#DejaVuSans-59" transform="translate(750.65625 0)"/>
      <use xlink:href="#DejaVuSans-2f" transform="translate(809.84375 0)"/>
      <use xlink:href="#DejaVuSans-30" transform="translate(865.5625 0)"/>
      <use xlink:href="#DejaVuSans-10" transform="translate(951.84375 0)"/>
      <use xlink:href="#DejaVuSans-2f" transform="translate(987.921875 0)"/>
      <use xlink:href="#DejaVuSans-c" transform="translate(1043.640625 0)"/>
     </g>
    </g>
   </g>
   <g id="patch_3">
    <path d="M 59.260391 254.833145 
L 59.260391 21.938203 
" style="fill: none; stroke: #d9dede; stroke-width: 0.8; stroke-linejoin: miter; stroke-linecap: square"/>
   </g>
   <g id="patch_4">
    <path d="M 506.344017 254.833145 
L 506.344017 21.938203 
" style="fill: none; stroke: #d9dede; stroke-width: 0.8; stroke-linejoin: miter; stroke-linecap: square"/>
   </g>
   <g id="patch_5">
    <path d="M 59.260391 254.833145 
L 506.344017 254.833145 
" style="fill: none; stroke: #d9dede; stroke-width: 0.8; stroke-linejoin: miter; stroke-linecap: square"/>
   </g>
   <g id="patch_6">
    <path d="M 59.260391 21.938203 
L 506.344017 21.938203 
" style="fill: none; stroke: #d9dede; stroke-width: 0.8; stroke-linejoin: miter; stroke-linecap: square"/>
   </g>
   <g id="text_17">
    <!-- (A) -->
    <g style="fill: #14181c" transform="translate(64.625394 34.548815) scale(0.12 -0.12)">
     <defs>
      <path id="DejaVuSans-Bold-b" d="M 2413 -844 
L 1484 -844 
Q 1006 -72 778 623 
Q 550 1319 550 2003 
Q 550 2688 779 3389 
Q 1009 4091 1484 4856 
L 2413 4856 
Q 2013 4116 1813 3408 
Q 1613 2700 1613 2009 
Q 1613 1319 1811 609 
Q 2009 -100 2413 -844 
z
" transform="scale(0.015625)"/>
      <path id="DejaVuSans-Bold-24" d="M 3419 850 
L 1538 850 
L 1241 0 
L 31 0 
L 1759 4666 
L 3194 4666 
L 4922 0 
L 3713 0 
L 3419 850 
z
M 1838 1716 
L 3116 1716 
L 2478 3572 
L 1838 1716 
z
" transform="scale(0.015625)"/>
      <path id="DejaVuSans-Bold-c" d="M 513 -844 
Q 913 -100 1113 609 
Q 1313 1319 1313 2009 
Q 1313 2700 1113 3408 
Q 913 4116 513 4856 
L 1441 4856 
Q 1916 4091 2145 3389 
Q 2375 2688 2375 2003 
Q 2375 1319 2147 623 
Q 1919 -72 1441 -844 
L 513 -844 
z
" transform="scale(0.015625)"/>
     </defs>
     <use xlink:href="#DejaVuSans-Bold-b"/>
     <use xlink:href="#DejaVuSans-Bold-24" transform="translate(45.703125 0)"/>
     <use xlink:href="#DejaVuSans-Bold-c" transform="translate(123.09375 0)"/>
    </g>
   </g>
   <g id="patch_7">
    <path d="M 79.582374 254.833145 
L 117.647719 254.833145 
L 117.647719 63.935652 
L 79.582374 63.935652 
z
" clip-path="url(#p36cd9a4240)" style="fill: #0f7b72; opacity: 0.45"/>
   </g>
   <g id="patch_8">
    <path d="M 140.978093 254.833145 
L 179.043438 254.833145 
L 179.043438 156.592063 
L 140.978093 156.592063 
z
" clip-path="url(#p36cd9a4240)" style="fill: #23479c"/>
   </g>
   <g id="patch_9">
    <path d="M 202.373812 254.833145 
L 240.439157 254.833145 
L 240.439157 191.779473 
L 202.373812 191.779473 
z
" clip-path="url(#p36cd9a4240)" style="fill: #23479c"/>
   </g>
   <g id="patch_10">
    <path d="M 263.769531 254.833145 
L 301.834876 254.833145 
L 301.834876 244.26315 
L 263.769531 244.26315 
z
" clip-path="url(#p36cd9a4240)" style="fill: #0f7b72"/>
   </g>
   <g id="patch_11">
    <path d="M 325.16525 254.833145 
L 363.230596 254.833145 
L 363.230596 219.86502 
L 325.16525 219.86502 
z
" clip-path="url(#p36cd9a4240)" style="fill: #0f7b72"/>
   </g>
   <g id="patch_12">
    <path d="M 386.560969 254.833145 
L 424.626315 254.833145 
L 424.626315 244.499262 
L 386.560969 244.499262 
z
" clip-path="url(#p36cd9a4240)" style="fill: #0f7b72"/>
   </g>
   <g id="patch_13">
    <path d="M 447.956688 254.833145 
L 486.022034 254.833145 
L 486.022034 249.614626 
L 447.956688 249.614626 
z
" clip-path="url(#p36cd9a4240)" style="fill: #0f7b72"/>
   </g>
   <g id="text_18">
    <!-- +0.1606 -->
    <g style="fill: #14181c" transform="translate(76.92989 59.533308) scale(0.1 -0.1)">
     <defs>
      <path id="DejaVuSans-e" d="M 2944 4013 
L 2944 2272 
L 4684 2272 
L 4684 1741 
L 2944 1741 
L 2944 0 
L 2419 0 
L 2419 1741 
L 678 1741 
L 678 2272 
L 2419 2272 
L 2419 4013 
L 2944 4013 
z
" transform="scale(0.015625)"/>
     </defs>
     <use xlink:href="#DejaVuSans-e"/>
     <use xlink:href="#DejaVuSans-13" transform="translate(83.796875 0)"/>
     <use xlink:href="#DejaVuSans-11" transform="translate(147.421875 0)"/>
     <use xlink:href="#DejaVuSans-14" transform="translate(179.203125 0)"/>
     <use xlink:href="#DejaVuSans-19" transform="translate(242.828125 0)"/>
     <use xlink:href="#DejaVuSans-13" transform="translate(306.453125 0)"/>
     <use xlink:href="#DejaVuSans-19" transform="translate(370.078125 0)"/>
    </g>
   </g>
   <g id="text_19">
    <!-- +0.0827 -->
    <g style="fill: #14181c" transform="translate(138.325609 152.189719) scale(0.1 -0.1)">
     <use xlink:href="#DejaVuSans-e"/>
     <use xlink:href="#DejaVuSans-13" transform="translate(83.796875 0)"/>
     <use xlink:href="#DejaVuSans-11" transform="translate(147.421875 0)"/>
     <use xlink:href="#DejaVuSans-13" transform="translate(179.203125 0)"/>
     <use xlink:href="#DejaVuSans-1b" transform="translate(242.828125 0)"/>
     <use xlink:href="#DejaVuSans-15" transform="translate(306.453125 0)"/>
     <use xlink:href="#DejaVuSans-1a" transform="translate(370.078125 0)"/>
    </g>
   </g>
   <g id="text_20">
    <!-- +0.0531 -->
    <g style="fill: #14181c" transform="translate(199.721328 187.377129) scale(0.1 -0.1)">
     <use xlink:href="#DejaVuSans-e"/>
     <use xlink:href="#DejaVuSans-13" transform="translate(83.796875 0)"/>
     <use xlink:href="#DejaVuSans-11" transform="translate(147.421875 0)"/>
     <use xlink:href="#DejaVuSans-13" transform="translate(179.203125 0)"/>
     <use xlink:href="#DejaVuSans-18" transform="translate(242.828125 0)"/>
     <use xlink:href="#DejaVuSans-16" transform="translate(306.453125 0)"/>
     <use xlink:href="#DejaVuSans-14" transform="translate(370.078125 0)"/>
    </g>
   </g>
   <g id="text_21">
    <!-- +0.0089 -->
    <g style="fill: #14181c" transform="translate(261.117047 239.860806) scale(0.1 -0.1)">
     <use xlink:href="#DejaVuSans-e"/>
     <use xlink:href="#DejaVuSans-13" transform="translate(83.796875 0)"/>
     <use xlink:href="#DejaVuSans-11" transform="translate(147.421875 0)"/>
     <use xlink:href="#DejaVuSans-13" transform="translate(179.203125 0)"/>
     <use xlink:href="#DejaVuSans-13" transform="translate(242.828125 0)"/>
     <use xlink:href="#DejaVuSans-1b" transform="translate(306.453125 0)"/>
     <use xlink:href="#DejaVuSans-1c" transform="translate(370.078125 0)"/>
    </g>
   </g>
   <g id="text_22">
    <!-- +0.0294 -->
    <g style="fill: #14181c" transform="translate(322.512766 215.462676) scale(0.1 -0.1)">
     <defs>
      <path id="DejaVuSans-17" d="M 2419 4116 
L 825 1625 
L 2419 1625 
L 2419 4116 
z
M 2253 4666 
L 3047 4666 
L 3047 1625 
L 3713 1625 
L 3713 1100 
L 3047 1100 
L 3047 0 
L 2419 0 
L 2419 1100 
L 313 1100 
L 313 1709 
L 2253 4666 
z
" transform="scale(0.015625)"/>
     </defs>
     <use xlink:href="#DejaVuSans-e"/>
     <use xlink:href="#DejaVuSans-13" transform="translate(83.796875 0)"/>
     <use xlink:href="#DejaVuSans-11" transform="translate(147.421875 0)"/>
     <use xlink:href="#DejaVuSans-13" transform="translate(179.203125 0)"/>
     <use xlink:href="#DejaVuSans-15" transform="translate(242.828125 0)"/>
     <use xlink:href="#DejaVuSans-1c" transform="translate(306.453125 0)"/>
     <use xlink:href="#DejaVuSans-17" transform="translate(370.078125 0)"/>
    </g>
   </g>
   <g id="text_23">
    <!-- +0.0087 -->
    <g style="fill: #14181c" transform="translate(383.908485 240.096919) scale(0.1 -0.1)">
     <use xlink:href="#DejaVuSans-e"/>
     <use xlink:href="#DejaVuSans-13" transform="translate(83.796875 0)"/>
     <use xlink:href="#DejaVuSans-11" transform="translate(147.421875 0)"/>
     <use xlink:href="#DejaVuSans-13" transform="translate(179.203125 0)"/>
     <use xlink:href="#DejaVuSans-13" transform="translate(242.828125 0)"/>
     <use xlink:href="#DejaVuSans-1b" transform="translate(306.453125 0)"/>
     <use xlink:href="#DejaVuSans-1a" transform="translate(370.078125 0)"/>
    </g>
   </g>
   <g id="text_24">
    <!-- +0.0044 -->
    <g style="fill: #14181c" transform="translate(445.304204 245.212283) scale(0.1 -0.1)">
     <use xlink:href="#DejaVuSans-e"/>
     <use xlink:href="#DejaVuSans-13" transform="translate(83.796875 0)"/>
     <use xlink:href="#DejaVuSans-11" transform="translate(147.421875 0)"/>
     <use xlink:href="#DejaVuSans-13" transform="translate(179.203125 0)"/>
     <use xlink:href="#DejaVuSans-13" transform="translate(242.828125 0)"/>
     <use xlink:href="#DejaVuSans-17" transform="translate(306.453125 0)"/>
     <use xlink:href="#DejaVuSans-17" transform="translate(370.078125 0)"/>
    </g>
   </g>
   <g id="text_25">
    <!-- SIM-o gain of each change -->
    <g style="fill: #14181c" transform="translate(206.497907 15.938203) scale(0.115 -0.115)">
     <defs>
      <path id="DejaVuSans-49" d="M 2375 4863 
L 2375 4384 
L 1825 4384 
Q 1516 4384 1395 4259 
Q 1275 4134 1275 3809 
L 1275 3500 
L 2222 3500 
L 2222 3053 
L 1275 3053 
L 1275 0 
L 697 0 
L 697 3053 
L 147 3053 
L 147 3500 
L 697 3500 
L 697 3744 
Q 697 4328 969 4595 
Q 1241 4863 1831 4863 
L 2375 4863 
z
" transform="scale(0.015625)"/>
     </defs>
     <use xlink:href="#DejaVuSans-36"/>
     <use xlink:href="#DejaVuSans-2c" transform="translate(63.484375 0)"/>
     <use xlink:href="#DejaVuSans-30" transform="translate(92.984375 0)"/>
     <use xlink:href="#DejaVuSans-10" transform="translate(179.265625 0)"/>
     <use xlink:href="#DejaVuSans-52" transform="translate(217.203125 0)"/>
     <use xlink:href="#DejaVuSans-3" transform="translate(278.390625 0)"/>
     <use xlink:href="#DejaVuSans-4a" transform="translate(310.171875 0)"/>
     <use xlink:href="#DejaVuSans-44" transform="translate(373.65625 0)"/>
     <use xlink:href="#DejaVuSans-4c" transform="translate(434.9375 0)"/>
     <use xlink:href="#DejaVuSans-51" transform="translate(462.71875 0)"/>
     <use xlink:href="#DejaVuSans-3" transform="translate(526.09375 0)"/>
     <use xlink:href="#DejaVuSans-52" transform="translate(557.875 0)"/>
     <use xlink:href="#DejaVuSans-49" transform="translate(619.0625 0)"/>
     <use xlink:href="#DejaVuSans-3" transform="translate(654.265625 0)"/>
     <use xlink:href="#DejaVuSans-48" transform="translate(686.046875 0)"/>
     <use xlink:href="#DejaVuSans-44" transform="translate(747.578125 0)"/>
     <use xlink:href="#DejaVuSans-46" transform="translate(808.859375 0)"/>
     <use xlink:href="#DejaVuSans-4b" transform="translate(863.84375 0)"/>
     <use xlink:href="#DejaVuSans-3" transform="translate(927.21875 0)"/>
     <use xlink:href="#DejaVuSans-46" transform="translate(959 0)"/>
     <use xlink:href="#DejaVuSans-4b" transform="translate(1013.984375 0)"/>
     <use xlink:href="#DejaVuSans-44" transform="translate(1077.359375 0)"/>
     <use xlink:href="#DejaVuSans-51" transform="translate(1138.640625 0)"/>
     <use xlink:href="#DejaVuSans-4a" transform="translate(1202.015625 0)"/>
     <use xlink:href="#DejaVuSans-48" transform="translate(1265.5 0)"/>
    </g>
   </g>
   <g id="line2d_31">
    <path d="M 59.260391 166.038297 
L 506.344017 166.038297 
" clip-path="url(#p36cd9a4240)" style="fill: none; stroke-dasharray: 6.66,2.88; stroke-dashoffset: 0; stroke: #b3261e; stroke-width: 1.8"/>
   </g>
   <g id="legend_1">
    <g id="line2d_32">
     <path d="M 238.765579 33.726797 
L 247.765579 33.726797 
L 256.765579 33.726797 
" style="fill: none; stroke-dasharray: 6.66,2.88; stroke-dashoffset: 0; stroke: #b3261e; stroke-width: 1.8"/>
    </g>
    <g id="text_26">
     <!-- remaining headroom to the codec ceiling (+0.0747) -->
     <g style="fill: #14181c" transform="translate(263.965579 36.876797) scale(0.09 -0.09)">
      <defs>
       <path id="DejaVuSans-4f" d="M 603 4863 
L 1178 4863 
L 1178 0 
L 603 0 
L 603 4863 
z
" transform="scale(0.015625)"/>
      </defs>
      <use xlink:href="#DejaVuSans-55"/>
      <use xlink:href="#DejaVuSans-48" transform="translate(38.90625 0)"/>
      <use xlink:href="#DejaVuSans-50" transform="translate(100.4375 0)"/>
      <use xlink:href="#DejaVuSans-44" transform="translate(197.84375 0)"/>
      <use xlink:href="#DejaVuSans-4c" transform="translate(259.125 0)"/>
      <use xlink:href="#DejaVuSans-51" transform="translate(286.90625 0)"/>
      <use xlink:href="#DejaVuSans-4c" transform="translate(350.28125 0)"/>
      <use xlink:href="#DejaVuSans-51" transform="translate(378.0625 0)"/>
      <use xlink:href="#DejaVuSans-4a" transform="translate(441.4375 0)"/>
      <use xlink:href="#DejaVuSans-3" transform="translate(504.921875 0)"/>
      <use xlink:href="#DejaVuSans-4b" transform="translate(536.703125 0)"/>
      <use xlink:href="#DejaVuSans-48" transform="translate(600.078125 0)"/>
      <use xlink:href="#DejaVuSans-44" transform="translate(661.609375 0)"/>
      <use xlink:href="#DejaVuSans-47" transform="translate(722.890625 0)"/>
      <use xlink:href="#DejaVuSans-55" transform="translate(786.375 0)"/>
      <use xlink:href="#DejaVuSans-52" transform="translate(825.28125 0)"/>
      <use xlink:href="#DejaVuSans-52" transform="translate(886.46875 0)"/>
      <use xlink:href="#DejaVuSans-50" transform="translate(947.65625 0)"/>
      <use xlink:href="#DejaVuSans-3" transform="translate(1045.0625 0)"/>
      <use xlink:href="#DejaVuSans-57" transform="translate(1076.84375 0)"/>
      <use xlink:href="#DejaVuSans-52" transform="translate(1116.046875 0)"/>
      <use xlink:href="#DejaVuSans-3" transform="translate(1177.234375 0)"/>
      <use xlink:href="#DejaVuSans-57" transform="translate(1209.015625 0)"/>
      <use xlink:href="#DejaVuSans-4b" transform="translate(1248.21875 0)"/>
      <use xlink:href="#DejaVuSans-48" transform="translate(1311.59375 0)"/>
      <use xlink:href="#DejaVuSans-3" transform="translate(1373.125 0)"/>
      <use xlink:href="#DejaVuSans-46" transform="translate(1404.90625 0)"/>
      <use xlink:href="#DejaVuSans-52" transform="translate(1459.890625 0)"/>
      <use xlink:href="#DejaVuSans-47" transform="translate(1521.078125 0)"/>
      <use xlink:href="#DejaVuSans-48" transform="translate(1584.5625 0)"/>
      <use xlink:href="#DejaVuSans-46" transform="translate(1646.09375 0)"/>
      <use xlink:href="#DejaVuSans-3" transform="translate(1701.078125 0)"/>
      <use xlink:href="#DejaVuSans-46" transform="translate(1732.859375 0)"/>
      <use xlink:href="#DejaVuSans-48" transform="translate(1787.84375 0)"/>
      <use xlink:href="#DejaVuSans-4c" transform="translate(1849.375 0)"/>
      <use xlink:href="#DejaVuSans-4f" transform="translate(1877.15625 0)"/>
      <use xlink:href="#DejaVuSans-4c" transform="translate(1904.9375 0)"/>
      <use xlink:href="#DejaVuSans-51" transform="translate(1932.71875 0)"/>
      <use xlink:href="#DejaVuSans-4a" transform="translate(1996.09375 0)"/>
      <use xlink:href="#DejaVuSans-3" transform="translate(2059.578125 0)"/>
      <use xlink:href="#DejaVuSans-b" transform="translate(2091.359375 0)"/>
      <use xlink:href="#DejaVuSans-e" transform="translate(2130.375 0)"/>
      <use xlink:href="#DejaVuSans-13" transform="translate(2214.171875 0)"/>
      <use xlink:href="#DejaVuSans-11" transform="translate(2277.796875 0)"/>
      <use xlink:href="#DejaVuSans-13" transform="translate(2309.578125 0)"/>
      <use xlink:href="#DejaVuSans-1a" transform="translate(2373.203125 0)"/>
      <use xlink:href="#DejaVuSans-17" transform="translate(2436.828125 0)"/>
      <use xlink:href="#DejaVuSans-1a" transform="translate(2500.453125 0)"/>
      <use xlink:href="#DejaVuSans-c" transform="translate(2564.078125 0)"/>
     </g>
    </g>
   </g>
  </g>
  <g id="axes_2">
   <g id="patch_14">
    <path d="M 522.613157 254.833145 
L 778.089515 254.833145 
L 778.089515 21.938203 
L 522.613157 21.938203 
z
" style="fill: #ffffff"/>
   </g>
   <g id="matplotlib.axis_3">
    <g id="xtick_8">
     <g id="line2d_33">
      <path d="M 522.613157 254.833145 
L 522.613157 21.938203 
" clip-path="url(#p639f68449c)" style="fill: none; stroke: #ecf1f0; stroke-width: 0.8; stroke-linecap: square"/>
     </g>
     <g id="line2d_34">
      <g>
       <use xlink:href="#m51148817fa" x="522.613157" y="254.833145" style="fill: #5b6470; stroke: #5b6470; stroke-width: 0.8"/>
      </g>
     </g>
     <g id="text_27">
      <!-- 0.0 -->
      <g style="fill: #5b6470" transform="translate(514.264017 269.810684) scale(0.105 -0.105)">
       <use xlink:href="#DejaVuSans-13"/>
       <use xlink:href="#DejaVuSans-11" transform="translate(63.625 0)"/>
       <use xlink:href="#DejaVuSans-13" transform="translate(95.40625 0)"/>
      </g>
     </g>
    </g>
    <g id="xtick_9">
     <g id="line2d_35">
      <path d="M 555.07769 254.833145 
L 555.07769 21.938203 
" clip-path="url(#p639f68449c)" style="fill: none; stroke: #ecf1f0; stroke-width: 0.8; stroke-linecap: square"/>
     </g>
     <g id="line2d_36">
      <g>
       <use xlink:href="#m51148817fa" x="555.07769" y="254.833145" style="fill: #5b6470; stroke: #5b6470; stroke-width: 0.8"/>
      </g>
     </g>
     <g id="text_28">
      <!-- 0.1 -->
      <g style="fill: #5b6470" transform="translate(546.728549 269.810684) scale(0.105 -0.105)">
       <use xlink:href="#DejaVuSans-13"/>
       <use xlink:href="#DejaVuSans-11" transform="translate(63.625 0)"/>
       <use xlink:href="#DejaVuSans-14" transform="translate(95.40625 0)"/>
      </g>
     </g>
    </g>
    <g id="xtick_10">
     <g id="line2d_37">
      <path d="M 587.542222 254.833145 
L 587.542222 21.938203 
" clip-path="url(#p639f68449c)" style="fill: none; stroke: #ecf1f0; stroke-width: 0.8; stroke-linecap: square"/>
     </g>
     <g id="line2d_38">
      <g>
       <use xlink:href="#m51148817fa" x="587.542222" y="254.833145" style="fill: #5b6470; stroke: #5b6470; stroke-width: 0.8"/>
      </g>
     </g>
     <g id="text_29">
      <!-- 0.2 -->
      <g style="fill: #5b6470" transform="translate(579.193081 269.810684) scale(0.105 -0.105)">
       <use xlink:href="#DejaVuSans-13"/>
       <use xlink:href="#DejaVuSans-11" transform="translate(63.625 0)"/>
       <use xlink:href="#DejaVuSans-15" transform="translate(95.40625 0)"/>
      </g>
     </g>
    </g>
    <g id="xtick_11">
     <g id="line2d_39">
      <path d="M 620.006754 254.833145 
L 620.006754 21.938203 
" clip-path="url(#p639f68449c)" style="fill: none; stroke: #ecf1f0; stroke-width: 0.8; stroke-linecap: square"/>
     </g>
     <g id="line2d_40">
      <g>
       <use xlink:href="#m51148817fa" x="620.006754" y="254.833145" style="fill: #5b6470; stroke: #5b6470; stroke-width: 0.8"/>
      </g>
     </g>
     <g id="text_30">
      <!-- 0.3 -->
      <g style="fill: #5b6470" transform="translate(611.657614 269.810684) scale(0.105 -0.105)">
       <use xlink:href="#DejaVuSans-13"/>
       <use xlink:href="#DejaVuSans-11" transform="translate(63.625 0)"/>
       <use xlink:href="#DejaVuSans-16" transform="translate(95.40625 0)"/>
      </g>
     </g>
    </g>
    <g id="xtick_12">
     <g id="line2d_41">
      <path d="M 652.471287 254.833145 
L 652.471287 21.938203 
" clip-path="url(#p639f68449c)" style="fill: none; stroke: #ecf1f0; stroke-width: 0.8; stroke-linecap: square"/>
     </g>
     <g id="line2d_42">
      <g>
       <use xlink:href="#m51148817fa" x="652.471287" y="254.833145" style="fill: #5b6470; stroke: #5b6470; stroke-width: 0.8"/>
      </g>
     </g>
     <g id="text_31">
      <!-- 0.4 -->
      <g style="fill: #5b6470" transform="translate(644.122146 269.810684) scale(0.105 -0.105)">
       <use xlink:href="#DejaVuSans-13"/>
       <use xlink:href="#DejaVuSans-11" transform="translate(63.625 0)"/>
       <use xlink:href="#DejaVuSans-17" transform="translate(95.40625 0)"/>
      </g>
     </g>
    </g>
    <g id="xtick_13">
     <g id="line2d_43">
      <path d="M 684.935819 254.833145 
L 684.935819 21.938203 
" clip-path="url(#p639f68449c)" style="fill: none; stroke: #ecf1f0; stroke-width: 0.8; stroke-linecap: square"/>
     </g>
     <g id="line2d_44">
      <g>
       <use xlink:href="#m51148817fa" x="684.935819" y="254.833145" style="fill: #5b6470; stroke: #5b6470; stroke-width: 0.8"/>
      </g>
     </g>
     <g id="text_32">
      <!-- 0.5 -->
      <g style="fill: #5b6470" transform="translate(676.586678 269.810684) scale(0.105 -0.105)">
       <use xlink:href="#DejaVuSans-13"/>
       <use xlink:href="#DejaVuSans-11" transform="translate(63.625 0)"/>
       <use xlink:href="#DejaVuSans-18" transform="translate(95.40625 0)"/>
      </g>
     </g>
    </g>
    <g id="xtick_14">
     <g id="line2d_45">
      <path d="M 717.400351 254.833145 
L 717.400351 21.938203 
" clip-path="url(#p639f68449c)" style="fill: none; stroke: #ecf1f0; stroke-width: 0.8; stroke-linecap: square"/>
     </g>
     <g id="line2d_46">
      <g>
       <use xlink:href="#m51148817fa" x="717.400351" y="254.833145" style="fill: #5b6470; stroke: #5b6470; stroke-width: 0.8"/>
      </g>
     </g>
     <g id="text_33">
      <!-- 0.6 -->
      <g style="fill: #5b6470" transform="translate(709.051211 269.810684) scale(0.105 -0.105)">
       <use xlink:href="#DejaVuSans-13"/>
       <use xlink:href="#DejaVuSans-11" transform="translate(63.625 0)"/>
       <use xlink:href="#DejaVuSans-19" transform="translate(95.40625 0)"/>
      </g>
     </g>
    </g>
    <g id="xtick_15">
     <g id="line2d_47">
      <path d="M 749.864884 254.833145 
L 749.864884 21.938203 
" clip-path="url(#p639f68449c)" style="fill: none; stroke: #ecf1f0; stroke-width: 0.8; stroke-linecap: square"/>
     </g>
     <g id="line2d_48">
      <g>
       <use xlink:href="#m51148817fa" x="749.864884" y="254.833145" style="fill: #5b6470; stroke: #5b6470; stroke-width: 0.8"/>
      </g>
     </g>
     <g id="text_34">
      <!-- 0.7 -->
      <g style="fill: #5b6470" transform="translate(741.515743 269.810684) scale(0.105 -0.105)">
       <use xlink:href="#DejaVuSans-13"/>
       <use xlink:href="#DejaVuSans-11" transform="translate(63.625 0)"/>
       <use xlink:href="#DejaVuSans-1a" transform="translate(95.40625 0)"/>
      </g>
     </g>
    </g>
    <g id="text_35">
     <!-- SIM-o against the prompt -->
     <g style="fill: #14181c" transform="translate(580.500477 284.691426) scale(0.11 -0.11)">
      <use xlink:href="#DejaVuSans-36"/>
      <use xlink:href="#DejaVuSans-2c" transform="translate(63.484375 0)"/>
      <use xlink:href="#DejaVuSans-30" transform="translate(92.984375 0)"/>
      <use xlink:href="#DejaVuSans-10" transform="translate(179.265625 0)"/>
      <use xlink:href="#DejaVuSans-52" transform="translate(217.203125 0)"/>
      <use xlink:href="#DejaVuSans-3" transform="translate(278.390625 0)"/>
      <use xlink:href="#DejaVuSans-44" transform="translate(310.171875 0)"/>
      <use xlink:href="#DejaVuSans-4a" transform="translate(371.453125 0)"/>
      <use xlink:href="#DejaVuSans-44" transform="translate(434.9375 0)"/>
      <use xlink:href="#DejaVuSans-4c" transform="translate(496.21875 0)"/>
      <use xlink:href="#DejaVuSans-51" transform="translate(524 0)"/>
      <use xlink:href="#DejaVuSans-56" transform="translate(587.375 0)"/>
      <use xlink:href="#DejaVuSans-57" transform="translate(639.46875 0)"/>
      <use xlink:href="#DejaVuSans-3" transform="translate(678.671875 0)"/>
      <use xlink:href="#DejaVuSans-57" transform="translate(710.453125 0)"/>
      <use xlink:href="#DejaVuSans-4b" transform="translate(749.65625 0)"/>
      <use xlink:href="#DejaVuSans-48" transform="translate(813.03125 0)"/>
      <use xlink:href="#DejaVuSans-3" transform="translate(874.5625 0)"/>
      <use xlink:href="#DejaVuSans-53" transform="translate(906.34375 0)"/>
      <use xlink:href="#DejaVuSans-55" transform="translate(969.828125 0)"/>
      <use xlink:href="#DejaVuSans-52" transform="translate(1008.734375 0)"/>
      <use xlink:href="#DejaVuSans-50" transform="translate(1069.921875 0)"/>
      <use xlink:href="#DejaVuSans-53" transform="translate(1167.328125 0)"/>
      <use xlink:href="#DejaVuSans-57" transform="translate(1230.8125 0)"/>
     </g>
    </g>
   </g>
   <g id="matplotlib.axis_4"/>
   <g id="patch_15">
    <path d="M 522.613157 254.833145 
L 522.613157 21.938203 
" style="fill: none; stroke: #d9dede; stroke-width: 0.8; stroke-linejoin: miter; stroke-linecap: square"/>
   </g>
   <g id="patch_16">
    <path d="M 778.089515 254.833145 
L 778.089515 21.938203 
" style="fill: none; stroke: #d9dede; stroke-width: 0.8; stroke-linejoin: miter; stroke-linecap: square"/>
   </g>
   <g id="patch_17">
    <path d="M 522.613157 254.833145 
L 778.089515 254.833145 
" style="fill: none; stroke: #d9dede; stroke-width: 0.8; stroke-linejoin: miter; stroke-linecap: square"/>
   </g>
   <g id="patch_18">
    <path d="M 522.613157 21.938203 
L 778.089515 21.938203 
" style="fill: none; stroke: #d9dede; stroke-width: 0.8; stroke-linejoin: miter; stroke-linecap: square"/>
   </g>
   <g id="text_36">
    <!-- (B) -->
    <g style="fill: #14181c" transform="translate(527.722684 34.548815) scale(0.12 -0.12)">
     <defs>
      <path id="DejaVuSans-Bold-25" d="M 2456 2859 
Q 2741 2859 2887 2984 
Q 3034 3109 3034 3353 
Q 3034 3594 2887 3720 
Q 2741 3847 2456 3847 
L 1791 3847 
L 1791 2859 
L 2456 2859 
z
M 2497 819 
Q 2859 819 3042 972 
Q 3225 1125 3225 1434 
Q 3225 1738 3044 1889 
Q 2863 2041 2497 2041 
L 1791 2041 
L 1791 819 
L 2497 819 
z
M 3616 2497 
Q 4003 2384 4215 2081 
Q 4428 1778 4428 1338 
Q 4428 663 3972 331 
Q 3516 0 2584 0 
L 588 0 
L 588 4666 
L 2394 4666 
Q 3366 4666 3802 4372 
Q 4238 4078 4238 3431 
Q 4238 3091 4078 2852 
Q 3919 2613 3616 2497 
z
" transform="scale(0.015625)"/>
     </defs>
     <use xlink:href="#DejaVuSans-Bold-b"/>
     <use xlink:href="#DejaVuSans-Bold-25" transform="translate(45.703125 0)"/>
     <use xlink:href="#DejaVuSans-Bold-c" transform="translate(121.921875 0)"/>
    </g>
   </g>
   <g id="patch_19">
    <path d="M 702.911267 156.351855 
L 742.851397 156.351855 
L 742.851397 100.457069 
L 702.911267 100.457069 
z
" clip-path="url(#p639f68449c)" style="fill: #c4541d"/>
   </g>
   <g id="patch_20">
    <path d="M 678.655555 156.351855 
L 702.911267 156.351855 
L 702.911267 100.457069 
L 678.655555 100.457069 
z
" clip-path="url(#p639f68449c)" style="fill: #23479c"/>
   </g>
   <g id="patch_21">
    <path d="M 522.613157 156.351855 
L 678.655555 156.351855 
L 678.655555 100.457069 
L 522.613157 100.457069 
z
" clip-path="url(#p639f68449c)" style="fill: #c9d3d2"/>
   </g>
   <g id="text_37">
    <!-- best 90k model -->
    <g style="fill: #14181c" transform="translate(601.895476 76.506262) scale(0.095 -0.095)">
     <defs>
      <path id="DejaVuSans-45" d="M 3116 1747 
Q 3116 2381 2855 2742 
Q 2594 3103 2138 3103 
Q 1681 3103 1420 2742 
Q 1159 2381 1159 1747 
Q 1159 1113 1420 752 
Q 1681 391 2138 391 
Q 2594 391 2855 752 
Q 3116 1113 3116 1747 
z
M 1159 2969 
Q 1341 3281 1617 3432 
Q 1894 3584 2278 3584 
Q 2916 3584 3314 3078 
Q 3713 2572 3713 1747 
Q 3713 922 3314 415 
Q 2916 -91 2278 -91 
Q 1894 -91 1617 61 
Q 1341 213 1159 525 
L 1159 0 
L 581 0 
L 581 4863 
L 1159 4863 
L 1159 2969 
z
" transform="scale(0.015625)"/>
     </defs>
     <use xlink:href="#DejaVuSans-45"/>
     <use xlink:href="#DejaVuSans-48" transform="translate(63.484375 0)"/>
     <use xlink:href="#DejaVuSans-56" transform="translate(125.015625 0)"/>
     <use xlink:href="#DejaVuSans-57" transform="translate(177.109375 0)"/>
     <use xlink:href="#DejaVuSans-3" transform="translate(216.3125 0)"/>
     <use xlink:href="#DejaVuSans-1c" transform="translate(248.09375 0)"/>
     <use xlink:href="#DejaVuSans-13" transform="translate(311.71875 0)"/>
     <use xlink:href="#DejaVuSans-4e" transform="translate(375.34375 0)"/>
     <use xlink:href="#DejaVuSans-3" transform="translate(433.25 0)"/>
     <use xlink:href="#DejaVuSans-50" transform="translate(465.03125 0)"/>
     <use xlink:href="#DejaVuSans-52" transform="translate(562.4375 0)"/>
     <use xlink:href="#DejaVuSans-47" transform="translate(623.625 0)"/>
     <use xlink:href="#DejaVuSans-48" transform="translate(687.109375 0)"/>
     <use xlink:href="#DejaVuSans-4f" transform="translate(748.640625 0)"/>
    </g>
    <!-- 0.481 -->
    <g style="fill: #14181c" transform="translate(648.458836 87.908117) scale(0.095 -0.095)">
     <use xlink:href="#DejaVuSans-13"/>
     <use xlink:href="#DejaVuSans-11" transform="translate(63.625 0)"/>
     <use xlink:href="#DejaVuSans-17" transform="translate(95.40625 0)"/>
     <use xlink:href="#DejaVuSans-1b" transform="translate(159.03125 0)"/>
     <use xlink:href="#DejaVuSans-14" transform="translate(222.65625 0)"/>
    </g>
   </g>
   <g id="text_38">
    <!-- codec ceiling -->
    <g style="fill: #14181c" transform="translate(671.814353 47.228041) scale(0.095 -0.095)">
     <use xlink:href="#DejaVuSans-46"/>
     <use xlink:href="#DejaVuSans-52" transform="translate(54.984375 0)"/>
     <use xlink:href="#DejaVuSans-47" transform="translate(116.171875 0)"/>
     <use xlink:href="#DejaVuSans-48" transform="translate(179.65625 0)"/>
     <use xlink:href="#DejaVuSans-46" transform="translate(241.1875 0)"/>
     <use xlink:href="#DejaVuSans-3" transform="translate(296.171875 0)"/>
     <use xlink:href="#DejaVuSans-46" transform="translate(327.953125 0)"/>
     <use xlink:href="#DejaVuSans-48" transform="translate(382.9375 0)"/>
     <use xlink:href="#DejaVuSans-4c" transform="translate(444.46875 0)"/>
     <use xlink:href="#DejaVuSans-4f" transform="translate(472.25 0)"/>
     <use xlink:href="#DejaVuSans-4c" transform="translate(500.03125 0)"/>
     <use xlink:href="#DejaVuSans-51" transform="translate(527.8125 0)"/>
     <use xlink:href="#DejaVuSans-4a" transform="translate(591.1875 0)"/>
    </g>
    <!-- 0.555 -->
    <g style="fill: #14181c" transform="translate(689.312908 58.629896) scale(0.095 -0.095)">
     <use xlink:href="#DejaVuSans-13"/>
     <use xlink:href="#DejaVuSans-11" transform="translate(63.625 0)"/>
     <use xlink:href="#DejaVuSans-18" transform="translate(95.40625 0)"/>
     <use xlink:href="#DejaVuSans-18" transform="translate(159.03125 0)"/>
     <use xlink:href="#DejaVuSans-18" transform="translate(222.65625 0)"/>
    </g>
   </g>
   <g id="text_39">
    <!-- real audio -->
    <g style="fill: #14181c" transform="translate(745.851397 76.506262) scale(0.095 -0.095)">
     <use xlink:href="#DejaVuSans-55"/>
     <use xlink:href="#DejaVuSans-48" transform="translate(38.90625 0)"/>
     <use xlink:href="#DejaVuSans-44" transform="translate(100.4375 0)"/>
     <use xlink:href="#DejaVuSans-4f" transform="translate(161.71875 0)"/>
     <use xlink:href="#DejaVuSans-3" transform="translate(189.5 0)"/>
     <use xlink:href="#DejaVuSans-44" transform="translate(221.28125 0)"/>
     <use xlink:href="#DejaVuSans-58" transform="translate(282.5625 0)"/>
     <use xlink:href="#DejaVuSans-47" transform="translate(345.9375 0)"/>
     <use xlink:href="#DejaVuSans-4c" transform="translate(409.421875 0)"/>
     <use xlink:href="#DejaVuSans-52" transform="translate(437.203125 0)"/>
    </g>
    <!-- 0.678 -->
    <g style="fill: #14181c" transform="translate(745.851397 87.908117) scale(0.095 -0.095)">
     <use xlink:href="#DejaVuSans-13"/>
     <use xlink:href="#DejaVuSans-11" transform="translate(63.625 0)"/>
     <use xlink:href="#DejaVuSans-19" transform="translate(95.40625 0)"/>
     <use xlink:href="#DejaVuSans-1a" transform="translate(159.03125 0)"/>
     <use xlink:href="#DejaVuSans-1b" transform="translate(222.65625 0)"/>
    </g>
   </g>
   <g id="text_40">
    <!-- 62% of the gap to real audio is the codec -->
    <g style="fill: #14181c" transform="translate(531.659656 15.938203) scale(0.115 -0.115)">
     <defs>
      <path id="DejaVuSans-8" d="M 4653 2053 
Q 4381 2053 4226 1822 
Q 4072 1591 4072 1178 
Q 4072 772 4226 539 
Q 4381 306 4653 306 
Q 4919 306 5073 539 
Q 5228 772 5228 1178 
Q 5228 1588 5073 1820 
Q 4919 2053 4653 2053 
z
M 4653 2450 
Q 5147 2450 5437 2106 
Q 5728 1763 5728 1178 
Q 5728 594 5436 251 
Q 5144 -91 4653 -91 
Q 4153 -91 3862 251 
Q 3572 594 3572 1178 
Q 3572 1766 3864 2108 
Q 4156 2450 4653 2450 
z
M 1428 4353 
Q 1159 4353 1004 4120 
Q 850 3888 850 3481 
Q 850 3069 1003 2837 
Q 1156 2606 1428 2606 
Q 1700 2606 1854 2837 
Q 2009 3069 2009 3481 
Q 2009 3884 1853 4118 
Q 1697 4353 1428 4353 
z
M 4250 4750 
L 4750 4750 
L 1831 -91 
L 1331 -91 
L 4250 4750 
z
M 1428 4750 
Q 1922 4750 2215 4408 
Q 2509 4066 2509 3481 
Q 2509 2891 2217 2550 
Q 1925 2209 1428 2209 
Q 931 2209 642 2551 
Q 353 2894 353 3481 
Q 353 4063 643 4406 
Q 934 4750 1428 4750 
z
" transform="scale(0.015625)"/>
     </defs>
     <use xlink:href="#DejaVuSans-19"/>
     <use xlink:href="#DejaVuSans-15" transform="translate(63.625 0)"/>
     <use xlink:href="#DejaVuSans-8" transform="translate(127.25 0)"/>
     <use xlink:href="#DejaVuSans-3" transform="translate(222.265625 0)"/>
     <use xlink:href="#DejaVuSans-52" transform="translate(254.046875 0)"/>
     <use xlink:href="#DejaVuSans-49" transform="translate(315.234375 0)"/>
     <use xlink:href="#DejaVuSans-3" transform="translate(350.4375 0)"/>
     <use xlink:href="#DejaVuSans-57" transform="translate(382.21875 0)"/>
     <use xlink:href="#DejaVuSans-4b" transform="translate(421.421875 0)"/>
     <use xlink:href="#DejaVuSans-48" transform="translate(484.796875 0)"/>
     <use xlink:href="#DejaVuSans-3" transform="translate(546.328125 0)"/>
     <use xlink:href="#DejaVuSans-4a" transform="translate(578.109375 0)"/>
     <use xlink:href="#DejaVuSans-44" transform="translate(641.59375 0)"/>
     <use xlink:href="#DejaVuSans-53" transform="translate(702.875 0)"/>
     <use xlink:href="#DejaVuSans-3" transform="translate(766.359375 0)"/>
     <use xlink:href="#DejaVuSans-57" transform="translate(798.140625 0)"/>
     <use xlink:href="#DejaVuSans-52" transform="translate(837.34375 0)"/>
     <use xlink:href="#DejaVuSans-3" transform="translate(898.53125 0)"/>
     <use xlink:href="#DejaVuSans-55" transform="translate(930.3125 0)"/>
     <use xlink:href="#DejaVuSans-48" transform="translate(969.21875 0)"/>
     <use xlink:href="#DejaVuSans-44" transform="translate(1030.75 0)"/>
     <use xlink:href="#DejaVuSans-4f" transform="translate(1092.03125 0)"/>
     <use xlink:href="#DejaVuSans-3" transform="translate(1119.8125 0)"/>
     <use xlink:href="#DejaVuSans-44" transform="translate(1151.59375 0)"/>
     <use xlink:href="#DejaVuSans-58" transform="translate(1212.875 0)"/>
     <use xlink:href="#DejaVuSans-47" transform="translate(1276.25 0)"/>
     <use xlink:href="#DejaVuSans-4c" transform="translate(1339.734375 0)"/>
     <use xlink:href="#DejaVuSans-52" transform="translate(1367.515625 0)"/>
     <use xlink:href="#DejaVuSans-3" transform="translate(1428.703125 0)"/>
     <use xlink:href="#DejaVuSans-4c" transform="translate(1460.484375 0)"/>
     <use xlink:href="#DejaVuSans-56" transform="translate(1488.265625 0)"/>
     <use xlink:href="#DejaVuSans-3" transform="translate(1540.359375 0)"/>
     <use xlink:href="#DejaVuSans-57" transform="translate(1572.140625 0)"/>
     <use xlink:href="#DejaVuSans-4b" transform="translate(1611.34375 0)"/>
     <use xlink:href="#DejaVuSans-48" transform="translate(1674.71875 0)"/>
     <use xlink:href="#DejaVuSans-3" transform="translate(1736.25 0)"/>
     <use xlink:href="#DejaVuSans-46" transform="translate(1768.03125 0)"/>
     <use xlink:href="#DejaVuSans-52" transform="translate(1823.015625 0)"/>
     <use xlink:href="#DejaVuSans-47" transform="translate(1884.203125 0)"/>
     <use xlink:href="#DejaVuSans-48" transform="translate(1947.6875 0)"/>
     <use xlink:href="#DejaVuSans-46" transform="translate(2009.21875 0)"/>
    </g>
   </g>
   <g id="line2d_49">
    <path d="M 678.655555 254.833145 
L 678.655555 21.938203 
" clip-path="url(#p639f68449c)" style="fill: none; stroke-dasharray: 1,1.65; stroke-dashoffset: 0; stroke: #14181c"/>
   </g>
   <g id="line2d_50">
    <path d="M 702.911267 254.833145 
L 702.911267 21.938203 
" clip-path="url(#p639f68449c)" style="fill: none; stroke-dasharray: 1,1.65; stroke-dashoffset: 0; stroke: #14181c"/>
   </g>
   <g id="line2d_51">
    <path d="M 742.851397 254.833145 
L 742.851397 21.938203 
" clip-path="url(#p639f68449c)" style="fill: none; stroke-dasharray: 1,1.65; stroke-dashoffset: 0; stroke: #14181c"/>
   </g>
   <g id="legend_2">
    <g id="patch_22">
     <path d="M 605.673421 250.083145 
L 771.439515 250.083145 
Q 773.339515 250.083145 773.339515 248.183145 
L 773.339515 206.380918 
Q 773.339515 204.480918 771.439515 204.480918 
L 605.673421 204.480918 
Q 603.773421 204.480918 603.773421 206.380918 
L 603.773421 248.183145 
Q 603.773421 250.083145 605.673421 250.083145 
z
" style="fill: #ffffff"/>
    </g>
    <g id="patch_23">
     <path d="M 607.573421 215.499434 
L 626.573421 215.499434 
L 626.573421 208.849434 
L 607.573421 208.849434 
z
" style="fill: #c4541d"/>
    </g>
    <g id="text_41">
     <!-- lost to the codec (0.123) -->
     <g style="fill: #14181c" transform="translate(634.173421 215.499434) scale(0.095 -0.095)">
      <use xlink:href="#DejaVuSans-4f"/>
      <use xlink:href="#DejaVuSans-52" transform="translate(27.78125 0)"/>
      <use xlink:href="#DejaVuSans-56" transform="translate(88.96875 0)"/>
      <use xlink:href="#DejaVuSans-57" transform="translate(141.0625 0)"/>
      <use xlink:href="#DejaVuSans-3" transform="translate(180.265625 0)"/>
      <use xlink:href="#DejaVuSans-57" transform="translate(212.046875 0)"/>
      <use xlink:href="#DejaVuSans-52" transform="translate(251.25 0)"/>
      <use xlink:href="#DejaVuSans-3" transform="translate(312.4375 0)"/>
      <use xlink:href="#DejaVuSans-57" transform="translate(344.21875 0)"/>
      <use xlink:href="#DejaVuSans-4b" transform="translate(383.421875 0)"/>
      <use xlink:href="#DejaVuSans-48" transform="translate(446.796875 0)"/>
      <use xlink:href="#DejaVuSans-3" transform="translate(508.328125 0)"/>
      <use xlink:href="#DejaVuSans-46" transform="translate(540.109375 0)"/>
      <use xlink:href="#DejaVuSans-52" transform="translate(595.09375 0)"/>
      <use xlink:href="#DejaVuSans-47" transform="translate(656.28125 0)"/>
      <use xlink:href="#DejaVuSans-48" transform="translate(719.765625 0)"/>
      <use xlink:href="#DejaVuSans-46" transform="translate(781.296875 0)"/>
      <use xlink:href="#DejaVuSans-3" transform="translate(836.28125 0)"/>
      <use xlink:href="#DejaVuSans-b" transform="translate(868.0625 0)"/>
      <use xlink:href="#DejaVuSans-13" transform="translate(907.078125 0)"/>
      <use xlink:href="#DejaVuSans-11" transform="translate(970.703125 0)"/>
      <use xlink:href="#DejaVuSans-14" transform="translate(1002.484375 0)"/>
      <use xlink:href="#DejaVuSans-15" transform="translate(1066.109375 0)"/>
      <use xlink:href="#DejaVuSans-16" transform="translate(1129.734375 0)"/>
      <use xlink:href="#DejaVuSans-c" transform="translate(1193.359375 0)"/>
     </g>
    </g>
    <g id="patch_24">
     <path d="M 607.573421 229.750176 
L 626.573421 229.750176 
L 626.573421 223.100176 
L 607.573421 223.100176 
z
" style="fill: #23479c"/>
    </g>
    <g id="text_42">
     <!-- lost to the model (0.075) -->
     <g style="fill: #14181c" transform="translate(634.173421 229.750176) scale(0.095 -0.095)">
      <use xlink:href="#DejaVuSans-4f"/>
      <use xlink:href="#DejaVuSans-52" transform="translate(27.78125 0)"/>
      <use xlink:href="#DejaVuSans-56" transform="translate(88.96875 0)"/>
      <use xlink:href="#DejaVuSans-57" transform="translate(141.0625 0)"/>
      <use xlink:href="#DejaVuSans-3" transform="translate(180.265625 0)"/>
      <use xlink:href="#DejaVuSans-57" transform="translate(212.046875 0)"/>
      <use xlink:href="#DejaVuSans-52" transform="translate(251.25 0)"/>
      <use xlink:href="#DejaVuSans-3" transform="translate(312.4375 0)"/>
      <use xlink:href="#DejaVuSans-57" transform="translate(344.21875 0)"/>
      <use xlink:href="#DejaVuSans-4b" transform="translate(383.421875 0)"/>
      <use xlink:href="#DejaVuSans-48" transform="translate(446.796875 0)"/>
      <use xlink:href="#DejaVuSans-3" transform="translate(508.328125 0)"/>
      <use xlink:href="#DejaVuSans-50" transform="translate(540.109375 0)"/>
      <use xlink:href="#DejaVuSans-52" transform="translate(637.515625 0)"/>
      <use xlink:href="#DejaVuSans-47" transform="translate(698.703125 0)"/>
      <use xlink:href="#DejaVuSans-48" transform="translate(762.1875 0)"/>
      <use xlink:href="#DejaVuSans-4f" transform="translate(823.71875 0)"/>
      <use xlink:href="#DejaVuSans-3" transform="translate(851.5 0)"/>
      <use xlink:href="#DejaVuSans-b" transform="translate(883.28125 0)"/>
      <use xlink:href="#DejaVuSans-13" transform="translate(922.296875 0)"/>
      <use xlink:href="#DejaVuSans-11" transform="translate(985.921875 0)"/>
      <use xlink:href="#DejaVuSans-13" transform="translate(1017.703125 0)"/>
      <use xlink:href="#DejaVuSans-1a" transform="translate(1081.328125 0)"/>
      <use xlink:href="#DejaVuSans-18" transform="translate(1144.953125 0)"/>
      <use xlink:href="#DejaVuSans-c" transform="translate(1208.578125 0)"/>
     </g>
    </g>
    <g id="patch_25">
     <path d="M 607.573421 244.000918 
L 626.573421 244.000918 
L 626.573421 237.350918 
L 607.573421 237.350918 
z
" style="fill: #c9d3d2"/>
    </g>
    <g id="text_43">
     <!-- best 90k-step model (0.481) -->
     <g style="fill: #14181c" transform="translate(634.173421 244.000918) scale(0.095 -0.095)">
      <use xlink:href="#DejaVuSans-45"/>
      <use xlink:href="#DejaVuSans-48" transform="translate(63.484375 0)"/>
      <use xlink:href="#DejaVuSans-56" transform="translate(125.015625 0)"/>
      <use xlink:href="#DejaVuSans-57" transform="translate(177.109375 0)"/>
      <use xlink:href="#DejaVuSans-3" transform="translate(216.3125 0)"/>
      <use xlink:href="#DejaVuSans-1c" transform="translate(248.09375 0)"/>
      <use xlink:href="#DejaVuSans-13" transform="translate(311.71875 0)"/>
      <use xlink:href="#DejaVuSans-4e" transform="translate(375.34375 0)"/>
      <use xlink:href="#DejaVuSans-10" transform="translate(433.25 0)"/>
      <use xlink:href="#DejaVuSans-56" transform="translate(469.328125 0)"/>
      <use xlink:href="#DejaVuSans-57" transform="translate(521.421875 0)"/>
      <use xlink:href="#DejaVuSans-48" transform="translate(560.625 0)"/>
      <use xlink:href="#DejaVuSans-53" transform="translate(622.15625 0)"/>
      <use xlink:href="#DejaVuSans-3" transform="translate(685.640625 0)"/>
      <use xlink:href="#DejaVuSans-50" transform="translate(717.421875 0)"/>
      <use xlink:href="#DejaVuSans-52" transform="translate(814.828125 0)"/>
      <use xlink:href="#DejaVuSans-47" transform="translate(876.015625 0)"/>
      <use xlink:href="#DejaVuSans-48" transform="translate(939.5 0)"/>
      <use xlink:href="#DejaVuSans-4f" transform="translate(1001.03125 0)"/>
      <use xlink:href="#DejaVuSans-3" transform="translate(1028.8125 0)"/>
      <use xlink:href="#DejaVuSans-b" transform="translate(1060.59375 0)"/>
      <use xlink:href="#DejaVuSans-13" transform="translate(1099.609375 0)"/>
      <use xlink:href="#DejaVuSans-11" transform="translate(1163.234375 0)"/>
      <use xlink:href="#DejaVuSans-17" transform="translate(1195.015625 0)"/>
      <use xlink:href="#DejaVuSans-1b" transform="translate(1258.640625 0)"/>
      <use xlink:href="#DejaVuSans-14" transform="translate(1322.265625 0)"/>
      <use xlink:href="#DejaVuSans-c" transform="translate(1385.890625 0)"/>
     </g>
    </g>
   </g>
  </g>
 </g>
 <defs>
  <clipPath id="p36cd9a4240">
   <rect x="59.260391" y="21.938203" width="447.083626" height="232.894942"/>
  </clipPath>
  <clipPath id="p639f68449c">
   <rect x="522.613157" y="21.938203" width="255.476358" height="232.894942"/>
  </clipPath>
 </defs>
</svg>
